<?xml version="1.0" encoding="utf-8" standalone="no"?>
<!DOCTYPE svg PUBLIC "-//W3C//DTD SVG 1.1//EN"
  "http://www.w3.org/Graphics/SVG/1.1/DTD/svg11.dtd">
<!-- Created with matplotlib (https://matplotlib.org/) -->
<svg height="144pt" version="1.1" viewBox="0 0 432 144" width="432pt" xmlns="http://www.w3.org/2000/svg" xmlns:xlink="http://www.w3.org/1999/xlink">
 <defs>
  <style type="text/css">
*{stroke-linecap:butt;stroke-linejoin:round;}
  </style>
 </defs>
 <g id="figure_1">
  <g id="patch_1">
   <path d="M 0 144 
L 432 144 
L 432 0 
L 0 0 
z
" style="fill:#ffffff;"/>
  </g>
  <g id="axes_1">
   <g id="patch_2">
    <path d="M 19.525 94.2 
L 412.475 94.2 
L 412.475 27.8 
L 19.525 27.8 
z
" style="fill:#ffffff;"/>
   </g>
   <g id="PathCollection_1">
    <defs>
     <path d="M 0 2.236068 
C 0.593012 2.236068 1.161816 2.000462 1.581139 1.581139 
C 2.000462 1.161816 2.236068 0.593012 2.236068 0 
C 2.236068 -0.593012 2.000462 -1.161816 1.581139 -1.581139 
C 1.161816 -2.000462 0.593012 -2.236068 0 -2.236068 
C -0.593012 -2.236068 -1.161816 -2.000462 -1.581139 -1.581139 
C -2.000462 -1.161816 -2.236068 -0.593012 -2.236068 0 
C -2.236068 0.593012 -2.000462 1.161816 -1.581139 1.581139 
C -1.161816 2.000462 -0.593012 2.236068 0 2.236068 
z
" id="m56084d2287" style="stroke:#000000;stroke-opacity:0.7;stroke-width:0.3;"/>
    </defs>
    <g clip-path="url(#p77cdd48408)">
     <use style="fill:#fefebb;fill-opacity:0.7;stroke:#000000;stroke-opacity:0.7;stroke-width:0.3;" x="75.869552" xlink:href="#m56084d2287" y="79.078737"/>
     <use style="fill:#fefebb;fill-opacity:0.7;stroke:#000000;stroke-opacity:0.7;stroke-width:0.3;" x="75.869552" xlink:href="#m56084d2287" y="76.97638"/>
     <use style="fill:#fefebb;fill-opacity:0.7;stroke:#000000;stroke-opacity:0.7;stroke-width:0.3;" x="70.39949" xlink:href="#m56084d2287" y="72.222592"/>
     <use style="fill:#fefebb;fill-opacity:0.7;stroke:#000000;stroke-opacity:0.7;stroke-width:0.3;" x="81.339615" xlink:href="#m56084d2287" y="76.104678"/>
     <use style="fill:#fefebb;fill-opacity:0.7;stroke:#000000;stroke-opacity:0.7;stroke-width:0.3;" x="75.869552" xlink:href="#m56084d2287" y="79.797052"/>
     <use style="fill:#fefebb;fill-opacity:0.7;stroke:#000000;stroke-opacity:0.7;stroke-width:0.3;" x="92.27974" xlink:href="#m56084d2287" y="79.116551"/>
     <use style="fill:#fefebb;fill-opacity:0.7;stroke:#000000;stroke-opacity:0.7;stroke-width:0.3;" x="75.869552" xlink:href="#m56084d2287" y="78.611877"/>
     <use style="fill:#fefebb;fill-opacity:0.7;stroke:#000000;stroke-opacity:0.7;stroke-width:0.3;" x="81.339615" xlink:href="#m56084d2287" y="74.789281"/>
     <use style="fill:#fefebb;fill-opacity:0.7;stroke:#000000;stroke-opacity:0.7;stroke-width:0.3;" x="75.869552" xlink:href="#m56084d2287" y="76.751206"/>
     <use style="fill:#fefebb;fill-opacity:0.7;stroke:#000000;stroke-opacity:0.7;stroke-width:0.3;" x="81.339615" xlink:href="#m56084d2287" y="76.148693"/>
     <use style="fill:#fefebb;fill-opacity:0.7;stroke:#000000;stroke-opacity:0.7;stroke-width:0.3;" x="81.339615" xlink:href="#m56084d2287" y="80.230367"/>
     <use style="fill:#fefebb;fill-opacity:0.7;stroke:#000000;stroke-opacity:0.7;stroke-width:0.3;" x="86.809677" xlink:href="#m56084d2287" y="76.902929"/>
     <use style="fill:#fefebb;fill-opacity:0.7;stroke:#000000;stroke-opacity:0.7;stroke-width:0.3;" x="75.869552" xlink:href="#m56084d2287" y="74.390365"/>
     <use style="fill:#fefebb;fill-opacity:0.7;stroke:#000000;stroke-opacity:0.7;stroke-width:0.3;" x="59.459365" xlink:href="#m56084d2287" y="74.170303"/>
     <use style="fill:#fefebb;fill-opacity:0.7;stroke:#000000;stroke-opacity:0.7;stroke-width:0.3;" x="64.929427" xlink:href="#m56084d2287" y="78.339734"/>
     <use style="fill:#fefebb;fill-opacity:0.7;stroke:#000000;stroke-opacity:0.7;stroke-width:0.3;" x="81.339615" xlink:href="#m56084d2287" y="76.820771"/>
     <use style="fill:#fefebb;fill-opacity:0.7;stroke:#000000;stroke-opacity:0.7;stroke-width:0.3;" x="70.39949" xlink:href="#m56084d2287" y="80.305393"/>
     <use style="fill:#fefebb;fill-opacity:0.7;stroke:#000000;stroke-opacity:0.7;stroke-width:0.3;" x="75.869552" xlink:href="#m56084d2287" y="76.648741"/>
     <use style="fill:#fefebb;fill-opacity:0.7;stroke:#000000;stroke-opacity:0.7;stroke-width:0.3;" x="92.27974" xlink:href="#m56084d2287" y="79.446992"/>
     <use style="fill:#fefebb;fill-opacity:0.7;stroke:#000000;stroke-opacity:0.7;stroke-width:0.3;" x="81.339615" xlink:href="#m56084d2287" y="77.972004"/>
     <use style="fill:#fefebb;fill-opacity:0.7;stroke:#000000;stroke-opacity:0.7;stroke-width:0.3;" x="92.27974" xlink:href="#m56084d2287" y="81.294082"/>
     <use style="fill:#fefebb;fill-opacity:0.7;stroke:#000000;stroke-opacity:0.7;stroke-width:0.3;" x="81.339615" xlink:href="#m56084d2287" y="79.855294"/>
     <use style="fill:#fefebb;fill-opacity:0.7;stroke:#000000;stroke-opacity:0.7;stroke-width:0.3;" x="53.989302" xlink:href="#m56084d2287" y="76.954656"/>
     <use style="fill:#fefebb;fill-opacity:0.7;stroke:#000000;stroke-opacity:0.7;stroke-width:0.3;" x="92.27974" xlink:href="#m56084d2287" y="81.122368"/>
     <use style="fill:#fefebb;fill-opacity:0.7;stroke:#000000;stroke-opacity:0.7;stroke-width:0.3;" x="103.219865" xlink:href="#m56084d2287" y="78.973053"/>
     <use style="fill:#fefebb;fill-opacity:0.7;stroke:#000000;stroke-opacity:0.7;stroke-width:0.3;" x="86.809677" xlink:href="#m56084d2287" y="80.243329"/>
     <use style="fill:#fefebb;fill-opacity:0.7;stroke:#000000;stroke-opacity:0.7;stroke-width:0.3;" x="86.809677" xlink:href="#m56084d2287" y="75.485625"/>
     <use style="fill:#fefebb;fill-opacity:0.7;stroke:#000000;stroke-opacity:0.7;stroke-width:0.3;" x="81.339615" xlink:href="#m56084d2287" y="75.959459"/>
     <use style="fill:#fefebb;fill-opacity:0.7;stroke:#000000;stroke-opacity:0.7;stroke-width:0.3;" x="75.869552" xlink:href="#m56084d2287" y="73.008952"/>
     <use style="fill:#fefebb;fill-opacity:0.7;stroke:#000000;stroke-opacity:0.7;stroke-width:0.3;" x="86.809677" xlink:href="#m56084d2287" y="78.965582"/>
     <use style="fill:#fefebb;fill-opacity:0.7;stroke:#000000;stroke-opacity:0.7;stroke-width:0.3;" x="86.809677" xlink:href="#m56084d2287" y="76.17811"/>
     <use style="fill:#fefebb;fill-opacity:0.7;stroke:#000000;stroke-opacity:0.7;stroke-width:0.3;" x="81.339615" xlink:href="#m56084d2287" y="75.681939"/>
     <use style="fill:#fefebb;fill-opacity:0.7;stroke:#000000;stroke-opacity:0.7;stroke-width:0.3;" x="81.339615" xlink:href="#m56084d2287" y="80.566901"/>
     <use style="fill:#fefebb;fill-opacity:0.7;stroke:#000000;stroke-opacity:0.7;stroke-width:0.3;" x="75.869552" xlink:href="#m56084d2287" y="75.827709"/>
     <use style="fill:#fefebb;fill-opacity:0.7;stroke:#000000;stroke-opacity:0.7;stroke-width:0.3;" x="81.339615" xlink:href="#m56084d2287" y="75.944502"/>
     <use style="fill:#fefebb;fill-opacity:0.7;stroke:#000000;stroke-opacity:0.7;stroke-width:0.3;" x="64.929427" xlink:href="#m56084d2287" y="79.144213"/>
     <use style="fill:#fefebb;fill-opacity:0.7;stroke:#000000;stroke-opacity:0.7;stroke-width:0.3;" x="70.39949" xlink:href="#m56084d2287" y="81.536788"/>
     <use style="fill:#fefebb;fill-opacity:0.7;stroke:#000000;stroke-opacity:0.7;stroke-width:0.3;" x="75.869552" xlink:href="#m56084d2287" y="75.511941"/>
     <use style="fill:#fefebb;fill-opacity:0.7;stroke:#000000;stroke-opacity:0.7;stroke-width:0.3;" x="70.39949" xlink:href="#m56084d2287" y="83.871996"/>
     <use style="fill:#fefebb;fill-opacity:0.7;stroke:#000000;stroke-opacity:0.7;stroke-width:0.3;" x="81.339615" xlink:href="#m56084d2287" y="78.597325"/>
     <use style="fill:#fefebb;fill-opacity:0.7;stroke:#000000;stroke-opacity:0.7;stroke-width:0.3;" x="70.39949" xlink:href="#m56084d2287" y="77.650716"/>
     <use style="fill:#fefebb;fill-opacity:0.7;stroke:#000000;stroke-opacity:0.7;stroke-width:0.3;" x="70.39949" xlink:href="#m56084d2287" y="76.297376"/>
     <use style="fill:#fefebb;fill-opacity:0.7;stroke:#000000;stroke-opacity:0.7;stroke-width:0.3;" x="70.39949" xlink:href="#m56084d2287" y="80.105029"/>
     <use style="fill:#fefebb;fill-opacity:0.7;stroke:#000000;stroke-opacity:0.7;stroke-width:0.3;" x="86.809677" xlink:href="#m56084d2287" y="81.946773"/>
     <use style="fill:#fefebb;fill-opacity:0.7;stroke:#000000;stroke-opacity:0.7;stroke-width:0.3;" x="103.219865" xlink:href="#m56084d2287" y="74.845629"/>
     <use style="fill:#fefebb;fill-opacity:0.7;stroke:#000000;stroke-opacity:0.7;stroke-width:0.3;" x="75.869552" xlink:href="#m56084d2287" y="74.71854"/>
     <use style="fill:#fefebb;fill-opacity:0.7;stroke:#000000;stroke-opacity:0.7;stroke-width:0.3;" x="86.809677" xlink:href="#m56084d2287" y="78.599108"/>
     <use style="fill:#fefebb;fill-opacity:0.7;stroke:#000000;stroke-opacity:0.7;stroke-width:0.3;" x="75.869552" xlink:href="#m56084d2287" y="76.727159"/>
     <use style="fill:#fefebb;fill-opacity:0.7;stroke:#000000;stroke-opacity:0.7;stroke-width:0.3;" x="81.339615" xlink:href="#m56084d2287" y="77.029679"/>
     <use style="fill:#fefebb;fill-opacity:0.7;stroke:#000000;stroke-opacity:0.7;stroke-width:0.3;" x="75.869552" xlink:href="#m56084d2287" y="74.716712"/>
    </g>
   </g>
   <g id="PathCollection_2">
    <defs>
     <path d="M 0 2.236068 
C 0.593012 2.236068 1.161816 2.000462 1.581139 1.581139 
C 2.000462 1.161816 2.236068 0.593012 2.236068 0 
C 2.236068 -0.593012 2.000462 -1.161816 1.581139 -1.581139 
C 1.161816 -2.000462 0.593012 -2.236068 0 -2.236068 
C -0.593012 -2.236068 -1.161816 -2.000462 -1.581139 -1.581139 
C -2.000462 -1.161816 -2.236068 -0.593012 -2.236068 0 
C -2.236068 0.593012 -2.000462 1.161816 -1.581139 1.581139 
C -1.161816 2.000462 -0.593012 2.236068 0 2.236068 
z
" id="m1619603103" style="stroke:#000000;stroke-opacity:0.7;stroke-width:0.3;"/>
    </defs>
    <g clip-path="url(#p77cdd48408)">
     <use style="fill:#d9e6f5;fill-opacity:0.7;stroke:#000000;stroke-opacity:0.7;stroke-width:0.3;" x="256.381615" xlink:href="#m1619603103" y="59.762915"/>
     <use style="fill:#d9e6f5;fill-opacity:0.7;stroke:#000000;stroke-opacity:0.7;stroke-width:0.3;" x="245.44149" xlink:href="#m1619603103" y="67.444712"/>
     <use style="fill:#d9e6f5;fill-opacity:0.7;stroke:#000000;stroke-opacity:0.7;stroke-width:0.3;" x="267.32174" xlink:href="#m1619603103" y="61.4636"/>
     <use style="fill:#d9e6f5;fill-opacity:0.7;stroke:#000000;stroke-opacity:0.7;stroke-width:0.3;" x="218.091177" xlink:href="#m1619603103" y="61.93261"/>
     <use style="fill:#d9e6f5;fill-opacity:0.7;stroke:#000000;stroke-opacity:0.7;stroke-width:0.3;" x="250.911552" xlink:href="#m1619603103" y="62.764665"/>
     <use style="fill:#d9e6f5;fill-opacity:0.7;stroke:#000000;stroke-opacity:0.7;stroke-width:0.3;" x="245.44149" xlink:href="#m1619603103" y="61.282608"/>
     <use style="fill:#d9e6f5;fill-opacity:0.7;stroke:#000000;stroke-opacity:0.7;stroke-width:0.3;" x="256.381615" xlink:href="#m1619603103" y="59.992013"/>
     <use style="fill:#d9e6f5;fill-opacity:0.7;stroke:#000000;stroke-opacity:0.7;stroke-width:0.3;" x="179.80074" xlink:href="#m1619603103" y="57.529748"/>
     <use style="fill:#d9e6f5;fill-opacity:0.7;stroke:#000000;stroke-opacity:0.7;stroke-width:0.3;" x="250.911552" xlink:href="#m1619603103" y="60.377074"/>
     <use style="fill:#d9e6f5;fill-opacity:0.7;stroke:#000000;stroke-opacity:0.7;stroke-width:0.3;" x="212.621115" xlink:href="#m1619603103" y="56.202842"/>
     <use style="fill:#d9e6f5;fill-opacity:0.7;stroke:#000000;stroke-opacity:0.7;stroke-width:0.3;" x="190.740865" xlink:href="#m1619603103" y="62.473774"/>
     <use style="fill:#d9e6f5;fill-opacity:0.7;stroke:#000000;stroke-opacity:0.7;stroke-width:0.3;" x="229.031302" xlink:href="#m1619603103" y="58.438964"/>
     <use style="fill:#d9e6f5;fill-opacity:0.7;stroke:#000000;stroke-opacity:0.7;stroke-width:0.3;" x="218.091177" xlink:href="#m1619603103" y="64.598104"/>
     <use style="fill:#d9e6f5;fill-opacity:0.7;stroke:#000000;stroke-opacity:0.7;stroke-width:0.3;" x="256.381615" xlink:href="#m1619603103" y="62.647306"/>
     <use style="fill:#d9e6f5;fill-opacity:0.7;stroke:#000000;stroke-opacity:0.7;stroke-width:0.3;" x="196.210927" xlink:href="#m1619603103" y="62.957154"/>
     <use style="fill:#d9e6f5;fill-opacity:0.7;stroke:#000000;stroke-opacity:0.7;stroke-width:0.3;" x="239.971427" xlink:href="#m1619603103" y="63.848455"/>
     <use style="fill:#d9e6f5;fill-opacity:0.7;stroke:#000000;stroke-opacity:0.7;stroke-width:0.3;" x="245.44149" xlink:href="#m1619603103" y="62.702516"/>
     <use style="fill:#d9e6f5;fill-opacity:0.7;stroke:#000000;stroke-opacity:0.7;stroke-width:0.3;" x="223.56124" xlink:href="#m1619603103" y="62.603639"/>
     <use style="fill:#d9e6f5;fill-opacity:0.7;stroke:#000000;stroke-opacity:0.7;stroke-width:0.3;" x="245.44149" xlink:href="#m1619603103" y="63.153188"/>
     <use style="fill:#d9e6f5;fill-opacity:0.7;stroke:#000000;stroke-opacity:0.7;stroke-width:0.3;" x="212.621115" xlink:href="#m1619603103" y="61.62103"/>
     <use style="fill:#d9e6f5;fill-opacity:0.7;stroke:#000000;stroke-opacity:0.7;stroke-width:0.3;" x="261.851677" xlink:href="#m1619603103" y="58.865113"/>
     <use style="fill:#d9e6f5;fill-opacity:0.7;stroke:#000000;stroke-opacity:0.7;stroke-width:0.3;" x="218.091177" xlink:href="#m1619603103" y="58.340005"/>
     <use style="fill:#d9e6f5;fill-opacity:0.7;stroke:#000000;stroke-opacity:0.7;stroke-width:0.3;" x="267.32174" xlink:href="#m1619603103" y="57.11693"/>
     <use style="fill:#d9e6f5;fill-opacity:0.7;stroke:#000000;stroke-opacity:0.7;stroke-width:0.3;" x="256.381615" xlink:href="#m1619603103" y="58.475039"/>
     <use style="fill:#d9e6f5;fill-opacity:0.7;stroke:#000000;stroke-opacity:0.7;stroke-width:0.3;" x="234.501365" xlink:href="#m1619603103" y="57.822238"/>
     <use style="fill:#d9e6f5;fill-opacity:0.7;stroke:#000000;stroke-opacity:0.7;stroke-width:0.3;" x="239.971427" xlink:href="#m1619603103" y="61.296257"/>
     <use style="fill:#d9e6f5;fill-opacity:0.7;stroke:#000000;stroke-opacity:0.7;stroke-width:0.3;" x="261.851677" xlink:href="#m1619603103" y="60.025161"/>
     <use style="fill:#d9e6f5;fill-opacity:0.7;stroke:#000000;stroke-opacity:0.7;stroke-width:0.3;" x="272.791802" xlink:href="#m1619603103" y="58.616731"/>
     <use style="fill:#d9e6f5;fill-opacity:0.7;stroke:#000000;stroke-opacity:0.7;stroke-width:0.3;" x="245.44149" xlink:href="#m1619603103" y="65.201148"/>
     <use style="fill:#d9e6f5;fill-opacity:0.7;stroke:#000000;stroke-opacity:0.7;stroke-width:0.3;" x="190.740865" xlink:href="#m1619603103" y="61.519094"/>
     <use style="fill:#d9e6f5;fill-opacity:0.7;stroke:#000000;stroke-opacity:0.7;stroke-width:0.3;" x="207.151052" xlink:href="#m1619603103" y="55.125052"/>
     <use style="fill:#d9e6f5;fill-opacity:0.7;stroke:#000000;stroke-opacity:0.7;stroke-width:0.3;" x="201.68099" xlink:href="#m1619603103" y="58.601597"/>
     <use style="fill:#d9e6f5;fill-opacity:0.7;stroke:#000000;stroke-opacity:0.7;stroke-width:0.3;" x="212.621115" xlink:href="#m1619603103" y="56.858195"/>
     <use style="fill:#d9e6f5;fill-opacity:0.7;stroke:#000000;stroke-opacity:0.7;stroke-width:0.3;" x="278.261865" xlink:href="#m1619603103" y="61.060374"/>
     <use style="fill:#d9e6f5;fill-opacity:0.7;stroke:#000000;stroke-opacity:0.7;stroke-width:0.3;" x="245.44149" xlink:href="#m1619603103" y="58.186586"/>
     <use style="fill:#d9e6f5;fill-opacity:0.7;stroke:#000000;stroke-opacity:0.7;stroke-width:0.3;" x="245.44149" xlink:href="#m1619603103" y="62.650147"/>
     <use style="fill:#d9e6f5;fill-opacity:0.7;stroke:#000000;stroke-opacity:0.7;stroke-width:0.3;" x="256.381615" xlink:href="#m1619603103" y="61.892877"/>
     <use style="fill:#d9e6f5;fill-opacity:0.7;stroke:#000000;stroke-opacity:0.7;stroke-width:0.3;" x="239.971427" xlink:href="#m1619603103" y="62.524737"/>
     <use style="fill:#d9e6f5;fill-opacity:0.7;stroke:#000000;stroke-opacity:0.7;stroke-width:0.3;" x="223.56124" xlink:href="#m1619603103" y="63.623278"/>
     <use style="fill:#d9e6f5;fill-opacity:0.7;stroke:#000000;stroke-opacity:0.7;stroke-width:0.3;" x="218.091177" xlink:href="#m1619603103" y="62.965132"/>
     <use style="fill:#d9e6f5;fill-opacity:0.7;stroke:#000000;stroke-opacity:0.7;stroke-width:0.3;" x="239.971427" xlink:href="#m1619603103" y="59.565159"/>
     <use style="fill:#d9e6f5;fill-opacity:0.7;stroke:#000000;stroke-opacity:0.7;stroke-width:0.3;" x="250.911552" xlink:href="#m1619603103" y="59.940441"/>
     <use style="fill:#d9e6f5;fill-opacity:0.7;stroke:#000000;stroke-opacity:0.7;stroke-width:0.3;" x="218.091177" xlink:href="#m1619603103" y="58.817949"/>
     <use style="fill:#d9e6f5;fill-opacity:0.7;stroke:#000000;stroke-opacity:0.7;stroke-width:0.3;" x="179.80074" xlink:href="#m1619603103" y="61.129788"/>
     <use style="fill:#d9e6f5;fill-opacity:0.7;stroke:#000000;stroke-opacity:0.7;stroke-width:0.3;" x="229.031302" xlink:href="#m1619603103" y="58.425214"/>
     <use style="fill:#d9e6f5;fill-opacity:0.7;stroke:#000000;stroke-opacity:0.7;stroke-width:0.3;" x="229.031302" xlink:href="#m1619603103" y="63.551413"/>
     <use style="fill:#d9e6f5;fill-opacity:0.7;stroke:#000000;stroke-opacity:0.7;stroke-width:0.3;" x="229.031302" xlink:href="#m1619603103" y="56.660434"/>
     <use style="fill:#d9e6f5;fill-opacity:0.7;stroke:#000000;stroke-opacity:0.7;stroke-width:0.3;" x="234.501365" xlink:href="#m1619603103" y="57.705558"/>
     <use style="fill:#d9e6f5;fill-opacity:0.7;stroke:#000000;stroke-opacity:0.7;stroke-width:0.3;" x="163.390552" xlink:href="#m1619603103" y="63.40306"/>
     <use style="fill:#d9e6f5;fill-opacity:0.7;stroke:#000000;stroke-opacity:0.7;stroke-width:0.3;" x="223.56124" xlink:href="#m1619603103" y="63.435102"/>
    </g>
   </g>
   <g id="PathCollection_3">
    <defs>
     <path d="M 0 2.236068 
C 0.593012 2.236068 1.161816 2.000462 1.581139 1.581139 
C 2.000462 1.161816 2.236068 0.593012 2.236068 0 
C 2.236068 -0.593012 2.000462 -1.161816 1.581139 -1.581139 
C 1.161816 -2.000462 0.593012 -2.236068 0 -2.236068 
C -0.593012 -2.236068 -1.161816 -2.000462 -1.581139 -1.581139 
C -2.000462 -1.161816 -2.236068 -0.593012 -2.236068 0 
C -2.236068 0.593012 -2.000462 1.161816 -1.581139 1.581139 
C -1.161816 2.000462 -0.593012 2.236068 0 2.236068 
z
" id="md27d02b4d1" style="stroke:#000000;stroke-opacity:0.7;stroke-width:0.3;"/>
    </defs>
    <g clip-path="url(#p77cdd48408)">
     <use style="fill:#a1dab4;fill-opacity:0.7;stroke:#000000;stroke-opacity:0.7;stroke-width:0.3;" x="327.492427" xlink:href="#md27d02b4d1" y="43.720755"/>
     <use style="fill:#a1dab4;fill-opacity:0.7;stroke:#000000;stroke-opacity:0.7;stroke-width:0.3;" x="278.261865" xlink:href="#md27d02b4d1" y="46.724251"/>
     <use style="fill:#a1dab4;fill-opacity:0.7;stroke:#000000;stroke-opacity:0.7;stroke-width:0.3;" x="322.022365" xlink:href="#md27d02b4d1" y="43.850369"/>
     <use style="fill:#a1dab4;fill-opacity:0.7;stroke:#000000;stroke-opacity:0.7;stroke-width:0.3;" x="305.612177" xlink:href="#md27d02b4d1" y="46.172997"/>
     <use style="fill:#a1dab4;fill-opacity:0.7;stroke:#000000;stroke-opacity:0.7;stroke-width:0.3;" x="316.552302" xlink:href="#md27d02b4d1" y="41.855689"/>
     <use style="fill:#a1dab4;fill-opacity:0.7;stroke:#000000;stroke-opacity:0.7;stroke-width:0.3;" x="360.312802" xlink:href="#md27d02b4d1" y="48.421295"/>
     <use style="fill:#a1dab4;fill-opacity:0.7;stroke:#000000;stroke-opacity:0.7;stroke-width:0.3;" x="245.44149" xlink:href="#md27d02b4d1" y="40.020661"/>
     <use style="fill:#a1dab4;fill-opacity:0.7;stroke:#000000;stroke-opacity:0.7;stroke-width:0.3;" x="343.902615" xlink:href="#md27d02b4d1" y="44.056436"/>
     <use style="fill:#a1dab4;fill-opacity:0.7;stroke:#000000;stroke-opacity:0.7;stroke-width:0.3;" x="316.552302" xlink:href="#md27d02b4d1" y="43.178721"/>
     <use style="fill:#a1dab4;fill-opacity:0.7;stroke:#000000;stroke-opacity:0.7;stroke-width:0.3;" x="332.96249" xlink:href="#md27d02b4d1" y="43.177808"/>
     <use style="fill:#a1dab4;fill-opacity:0.7;stroke:#000000;stroke-opacity:0.7;stroke-width:0.3;" x="278.261865" xlink:href="#md27d02b4d1" y="43.462502"/>
     <use style="fill:#a1dab4;fill-opacity:0.7;stroke:#000000;stroke-opacity:0.7;stroke-width:0.3;" x="289.20199" xlink:href="#md27d02b4d1" y="46.264401"/>
     <use style="fill:#a1dab4;fill-opacity:0.7;stroke:#000000;stroke-opacity:0.7;stroke-width:0.3;" x="300.142115" xlink:href="#md27d02b4d1" y="45.183471"/>
     <use style="fill:#a1dab4;fill-opacity:0.7;stroke:#000000;stroke-opacity:0.7;stroke-width:0.3;" x="272.791802" xlink:href="#md27d02b4d1" y="48.668281"/>
     <use style="fill:#a1dab4;fill-opacity:0.7;stroke:#000000;stroke-opacity:0.7;stroke-width:0.3;" x="278.261865" xlink:href="#md27d02b4d1" y="44.532747"/>
     <use style="fill:#a1dab4;fill-opacity:0.7;stroke:#000000;stroke-opacity:0.7;stroke-width:0.3;" x="289.20199" xlink:href="#md27d02b4d1" y="43.415804"/>
     <use style="fill:#a1dab4;fill-opacity:0.7;stroke:#000000;stroke-opacity:0.7;stroke-width:0.3;" x="300.142115" xlink:href="#md27d02b4d1" y="42.460972"/>
     <use style="fill:#a1dab4;fill-opacity:0.7;stroke:#000000;stroke-opacity:0.7;stroke-width:0.3;" x="365.782864" xlink:href="#md27d02b4d1" y="40.89762"/>
     <use style="fill:#a1dab4;fill-opacity:0.7;stroke:#000000;stroke-opacity:0.7;stroke-width:0.3;" x="376.722989" xlink:href="#md27d02b4d1" y="48.29709"/>
     <use style="fill:#a1dab4;fill-opacity:0.7;stroke:#000000;stroke-opacity:0.7;stroke-width:0.3;" x="272.791802" xlink:href="#md27d02b4d1" y="43.645444"/>
     <use style="fill:#a1dab4;fill-opacity:0.7;stroke:#000000;stroke-opacity:0.7;stroke-width:0.3;" x="311.08224" xlink:href="#md27d02b4d1" y="44.133052"/>
     <use style="fill:#a1dab4;fill-opacity:0.7;stroke:#000000;stroke-opacity:0.7;stroke-width:0.3;" x="267.32174" xlink:href="#md27d02b4d1" y="46.898025"/>
     <use style="fill:#a1dab4;fill-opacity:0.7;stroke:#000000;stroke-opacity:0.7;stroke-width:0.3;" x="365.782864" xlink:href="#md27d02b4d1" y="47.584861"/>
     <use style="fill:#a1dab4;fill-opacity:0.7;stroke:#000000;stroke-opacity:0.7;stroke-width:0.3;" x="267.32174" xlink:href="#md27d02b4d1" y="46.025815"/>
     <use style="fill:#a1dab4;fill-opacity:0.7;stroke:#000000;stroke-opacity:0.7;stroke-width:0.3;" x="311.08224" xlink:href="#md27d02b4d1" y="42.22053"/>
     <use style="fill:#a1dab4;fill-opacity:0.7;stroke:#000000;stroke-opacity:0.7;stroke-width:0.3;" x="327.492427" xlink:href="#md27d02b4d1" y="47.092959"/>
     <use style="fill:#a1dab4;fill-opacity:0.7;stroke:#000000;stroke-opacity:0.7;stroke-width:0.3;" x="261.851677" xlink:href="#md27d02b4d1" y="44.091587"/>
     <use style="fill:#a1dab4;fill-opacity:0.7;stroke:#000000;stroke-opacity:0.7;stroke-width:0.3;" x="267.32174" xlink:href="#md27d02b4d1" y="45.196395"/>
     <use style="fill:#a1dab4;fill-opacity:0.7;stroke:#000000;stroke-opacity:0.7;stroke-width:0.3;" x="305.612177" xlink:href="#md27d02b4d1" y="41.982013"/>
     <use style="fill:#a1dab4;fill-opacity:0.7;stroke:#000000;stroke-opacity:0.7;stroke-width:0.3;" x="316.552302" xlink:href="#md27d02b4d1" y="42.830207"/>
     <use style="fill:#a1dab4;fill-opacity:0.7;stroke:#000000;stroke-opacity:0.7;stroke-width:0.3;" x="332.96249" xlink:href="#md27d02b4d1" y="49.430746"/>
     <use style="fill:#a1dab4;fill-opacity:0.7;stroke:#000000;stroke-opacity:0.7;stroke-width:0.3;" x="349.372677" xlink:href="#md27d02b4d1" y="47.984038"/>
     <use style="fill:#a1dab4;fill-opacity:0.7;stroke:#000000;stroke-opacity:0.7;stroke-width:0.3;" x="305.612177" xlink:href="#md27d02b4d1" y="44.309897"/>
     <use style="fill:#a1dab4;fill-opacity:0.7;stroke:#000000;stroke-opacity:0.7;stroke-width:0.3;" x="278.261865" xlink:href="#md27d02b4d1" y="49.439514"/>
     <use style="fill:#a1dab4;fill-opacity:0.7;stroke:#000000;stroke-opacity:0.7;stroke-width:0.3;" x="305.612177" xlink:href="#md27d02b4d1" y="42.814066"/>
     <use style="fill:#a1dab4;fill-opacity:0.7;stroke:#000000;stroke-opacity:0.7;stroke-width:0.3;" x="332.96249" xlink:href="#md27d02b4d1" y="46.813929"/>
     <use style="fill:#a1dab4;fill-opacity:0.7;stroke:#000000;stroke-opacity:0.7;stroke-width:0.3;" x="305.612177" xlink:href="#md27d02b4d1" y="48.826032"/>
     <use style="fill:#a1dab4;fill-opacity:0.7;stroke:#000000;stroke-opacity:0.7;stroke-width:0.3;" x="300.142115" xlink:href="#md27d02b4d1" y="45.259787"/>
     <use style="fill:#a1dab4;fill-opacity:0.7;stroke:#000000;stroke-opacity:0.7;stroke-width:0.3;" x="261.851677" xlink:href="#md27d02b4d1" y="44.048203"/>
     <use style="fill:#a1dab4;fill-opacity:0.7;stroke:#000000;stroke-opacity:0.7;stroke-width:0.3;" x="294.672052" xlink:href="#md27d02b4d1" y="44.838221"/>
     <use style="fill:#a1dab4;fill-opacity:0.7;stroke:#000000;stroke-opacity:0.7;stroke-width:0.3;" x="305.612177" xlink:href="#md27d02b4d1" y="48.223194"/>
     <use style="fill:#a1dab4;fill-opacity:0.7;stroke:#000000;stroke-opacity:0.7;stroke-width:0.3;" x="278.261865" xlink:href="#md27d02b4d1" y="46.215476"/>
     <use style="fill:#a1dab4;fill-opacity:0.7;stroke:#000000;stroke-opacity:0.7;stroke-width:0.3;" x="278.261865" xlink:href="#md27d02b4d1" y="47.001616"/>
     <use style="fill:#a1dab4;fill-opacity:0.7;stroke:#000000;stroke-opacity:0.7;stroke-width:0.3;" x="322.022365" xlink:href="#md27d02b4d1" y="45.840304"/>
     <use style="fill:#a1dab4;fill-opacity:0.7;stroke:#000000;stroke-opacity:0.7;stroke-width:0.3;" x="311.08224" xlink:href="#md27d02b4d1" y="48.886742"/>
     <use style="fill:#a1dab4;fill-opacity:0.7;stroke:#000000;stroke-opacity:0.7;stroke-width:0.3;" x="283.731927" xlink:href="#md27d02b4d1" y="41.341657"/>
     <use style="fill:#a1dab4;fill-opacity:0.7;stroke:#000000;stroke-opacity:0.7;stroke-width:0.3;" x="272.791802" xlink:href="#md27d02b4d1" y="43.667405"/>
     <use style="fill:#a1dab4;fill-opacity:0.7;stroke:#000000;stroke-opacity:0.7;stroke-width:0.3;" x="283.731927" xlink:href="#md27d02b4d1" y="38.663242"/>
     <use style="fill:#a1dab4;fill-opacity:0.7;stroke:#000000;stroke-opacity:0.7;stroke-width:0.3;" x="294.672052" xlink:href="#md27d02b4d1" y="43.157374"/>
     <use style="fill:#a1dab4;fill-opacity:0.7;stroke:#000000;stroke-opacity:0.7;stroke-width:0.3;" x="278.261865" xlink:href="#md27d02b4d1" y="46.571976"/>
    </g>
   </g>
   <g id="patch_3">
    <path clip-path="url(#p77cdd48408)" d="M 37.386364 94.2 
L 133.305208 94.2 
L 133.305208 89.552 
L 37.386364 89.552 
z
" style="fill:#fefebb;stroke:#444443;stroke-linejoin:miter;stroke-width:0.3;"/>
   </g>
   <g id="patch_4">
    <path clip-path="url(#p77cdd48408)" d="M 133.305208 94.2 
L 259.116646 94.2 
L 259.116646 89.552 
L 133.305208 89.552 
z
" style="fill:#d9e6f5;stroke:#444443;stroke-linejoin:miter;stroke-width:0.3;"/>
   </g>
   <g id="patch_5">
    <path clip-path="url(#p77cdd48408)" d="M 259.116646 94.2 
L 394.613636 94.2 
L 394.613636 89.552 
L 259.116646 89.552 
z
" style="fill:#a1dab4;stroke:#444443;stroke-linejoin:miter;stroke-width:0.3;"/>
   </g>
   <g id="matplotlib.axis_1">
    <g id="xtick_1">
     <g id="line2d_1">
      <defs>
       <path d="M 0 0 
L 0 3.5 
" id="m229f72d646" style="stroke:#000000;stroke-width:0.3;"/>
      </defs>
      <g>
       <use style="stroke:#000000;stroke-width:0.3;" x="53.989302" xlink:href="#m229f72d646" y="94.2"/>
      </g>
     </g>
     <g id="text_1">
      <!-- 1 -->
      <defs>
       <path d="M 12.40625 8.296875 
L 28.515625 8.296875 
L 28.515625 63.921875 
L 10.984375 60.40625 
L 10.984375 69.390625 
L 28.421875 72.90625 
L 38.28125 72.90625 
L 38.28125 8.296875 
L 54.390625 8.296875 
L 54.390625 0 
L 12.40625 0 
z
" id="DejaVuSans-49"/>
      </defs>
      <g style="fill:#444443;" transform="translate(49.535552 111.837813)scale(0.14 -0.14)">
       <use xlink:href="#DejaVuSans-49"/>
      </g>
     </g>
    </g>
    <g id="xtick_2">
     <g id="line2d_2">
      <g>
       <use style="stroke:#000000;stroke-width:0.3;" x="108.689927" xlink:href="#m229f72d646" y="94.2"/>
      </g>
     </g>
     <g id="text_2">
      <!-- 2 -->
      <defs>
       <path d="M 19.1875 8.296875 
L 53.609375 8.296875 
L 53.609375 0 
L 7.328125 0 
L 7.328125 8.296875 
Q 12.9375 14.109375 22.625 23.890625 
Q 32.328125 33.6875 34.8125 36.53125 
Q 39.546875 41.84375 41.421875 45.53125 
Q 43.3125 49.21875 43.3125 52.78125 
Q 43.3125 58.59375 39.234375 62.25 
Q 35.15625 65.921875 28.609375 65.921875 
Q 23.96875 65.921875 18.8125 64.3125 
Q 13.671875 62.703125 7.8125 59.421875 
L 7.8125 69.390625 
Q 13.765625 71.78125 18.9375 73 
Q 24.125 74.21875 28.421875 74.21875 
Q 39.75 74.21875 46.484375 68.546875 
Q 53.21875 62.890625 53.21875 53.421875 
Q 53.21875 48.921875 51.53125 44.890625 
Q 49.859375 40.875 45.40625 35.40625 
Q 44.1875 33.984375 37.640625 27.21875 
Q 31.109375 20.453125 19.1875 8.296875 
z
" id="DejaVuSans-50"/>
      </defs>
      <g style="fill:#444443;" transform="translate(104.236177 111.837813)scale(0.14 -0.14)">
       <use xlink:href="#DejaVuSans-50"/>
      </g>
     </g>
    </g>
    <g id="xtick_3">
     <g id="line2d_3">
      <g>
       <use style="stroke:#000000;stroke-width:0.3;" x="163.390552" xlink:href="#m229f72d646" y="94.2"/>
      </g>
     </g>
     <g id="text_3">
      <!-- 3 -->
      <defs>
       <path d="M 40.578125 39.3125 
Q 47.65625 37.796875 51.625 33 
Q 55.609375 28.21875 55.609375 21.1875 
Q 55.609375 10.40625 48.1875 4.484375 
Q 40.765625 -1.421875 27.09375 -1.421875 
Q 22.515625 -1.421875 17.65625 -0.515625 
Q 12.796875 0.390625 7.625 2.203125 
L 7.625 11.71875 
Q 11.71875 9.328125 16.59375 8.109375 
Q 21.484375 6.890625 26.8125 6.890625 
Q 36.078125 6.890625 40.9375 10.546875 
Q 45.796875 14.203125 45.796875 21.1875 
Q 45.796875 27.640625 41.28125 31.265625 
Q 36.765625 34.90625 28.71875 34.90625 
L 20.21875 34.90625 
L 20.21875 43.015625 
L 29.109375 43.015625 
Q 36.375 43.015625 40.234375 45.921875 
Q 44.09375 48.828125 44.09375 54.296875 
Q 44.09375 59.90625 40.109375 62.90625 
Q 36.140625 65.921875 28.71875 65.921875 
Q 24.65625 65.921875 20.015625 65.03125 
Q 15.375 64.15625 9.8125 62.3125 
L 9.8125 71.09375 
Q 15.4375 72.65625 20.34375 73.4375 
Q 25.25 74.21875 29.59375 74.21875 
Q 40.828125 74.21875 47.359375 69.109375 
Q 53.90625 64.015625 53.90625 55.328125 
Q 53.90625 49.265625 50.4375 45.09375 
Q 46.96875 40.921875 40.578125 39.3125 
z
" id="DejaVuSans-51"/>
      </defs>
      <g style="fill:#444443;" transform="translate(158.936802 111.837813)scale(0.14 -0.14)">
       <use xlink:href="#DejaVuSans-51"/>
      </g>
     </g>
    </g>
    <g id="xtick_4">
     <g id="line2d_4">
      <g>
       <use style="stroke:#000000;stroke-width:0.3;" x="218.091177" xlink:href="#m229f72d646" y="94.2"/>
      </g>
     </g>
     <g id="text_4">
      <!-- 4 -->
      <defs>
       <path d="M 37.796875 64.3125 
L 12.890625 25.390625 
L 37.796875 25.390625 
z
M 35.203125 72.90625 
L 47.609375 72.90625 
L 47.609375 25.390625 
L 58.015625 25.390625 
L 58.015625 17.1875 
L 47.609375 17.1875 
L 47.609375 0 
L 37.796875 0 
L 37.796875 17.1875 
L 4.890625 17.1875 
L 4.890625 26.703125 
z
" id="DejaVuSans-52"/>
      </defs>
      <g style="fill:#444443;" transform="translate(213.637427 111.837813)scale(0.14 -0.14)">
       <use xlink:href="#DejaVuSans-52"/>
      </g>
     </g>
    </g>
    <g id="xtick_5">
     <g id="line2d_5">
      <g>
       <use style="stroke:#000000;stroke-width:0.3;" x="272.791802" xlink:href="#m229f72d646" y="94.2"/>
      </g>
     </g>
     <g id="text_5">
      <!-- 5 -->
      <defs>
       <path d="M 10.796875 72.90625 
L 49.515625 72.90625 
L 49.515625 64.59375 
L 19.828125 64.59375 
L 19.828125 46.734375 
Q 21.96875 47.46875 24.109375 47.828125 
Q 26.265625 48.1875 28.421875 48.1875 
Q 40.625 48.1875 47.75 41.5 
Q 54.890625 34.8125 54.890625 23.390625 
Q 54.890625 11.625 47.5625 5.09375 
Q 40.234375 -1.421875 26.90625 -1.421875 
Q 22.3125 -1.421875 17.546875 -0.640625 
Q 12.796875 0.140625 7.71875 1.703125 
L 7.71875 11.625 
Q 12.109375 9.234375 16.796875 8.0625 
Q 21.484375 6.890625 26.703125 6.890625 
Q 35.15625 6.890625 40.078125 11.328125 
Q 45.015625 15.765625 45.015625 23.390625 
Q 45.015625 31 40.078125 35.4375 
Q 35.15625 39.890625 26.703125 39.890625 
Q 22.75 39.890625 18.8125 39.015625 
Q 14.890625 38.140625 10.796875 36.28125 
z
" id="DejaVuSans-53"/>
      </defs>
      <g style="fill:#444443;" transform="translate(268.338052 111.837813)scale(0.14 -0.14)">
       <use xlink:href="#DejaVuSans-53"/>
      </g>
     </g>
    </g>
    <g id="xtick_6">
     <g id="line2d_6">
      <g>
       <use style="stroke:#000000;stroke-width:0.3;" x="327.492427" xlink:href="#m229f72d646" y="94.2"/>
      </g>
     </g>
     <g id="text_6">
      <!-- 6 -->
      <defs>
       <path d="M 33.015625 40.375 
Q 26.375 40.375 22.484375 35.828125 
Q 18.609375 31.296875 18.609375 23.390625 
Q 18.609375 15.53125 22.484375 10.953125 
Q 26.375 6.390625 33.015625 6.390625 
Q 39.65625 6.390625 43.53125 10.953125 
Q 47.40625 15.53125 47.40625 23.390625 
Q 47.40625 31.296875 43.53125 35.828125 
Q 39.65625 40.375 33.015625 40.375 
z
M 52.59375 71.296875 
L 52.59375 62.3125 
Q 48.875 64.0625 45.09375 64.984375 
Q 41.3125 65.921875 37.59375 65.921875 
Q 27.828125 65.921875 22.671875 59.328125 
Q 17.53125 52.734375 16.796875 39.40625 
Q 19.671875 43.65625 24.015625 45.921875 
Q 28.375 48.1875 33.59375 48.1875 
Q 44.578125 48.1875 50.953125 41.515625 
Q 57.328125 34.859375 57.328125 23.390625 
Q 57.328125 12.15625 50.6875 5.359375 
Q 44.046875 -1.421875 33.015625 -1.421875 
Q 20.359375 -1.421875 13.671875 8.265625 
Q 6.984375 17.96875 6.984375 36.375 
Q 6.984375 53.65625 15.1875 63.9375 
Q 23.390625 74.21875 37.203125 74.21875 
Q 40.921875 74.21875 44.703125 73.484375 
Q 48.484375 72.75 52.59375 71.296875 
z
" id="DejaVuSans-54"/>
      </defs>
      <g style="fill:#444443;" transform="translate(323.038677 111.837813)scale(0.14 -0.14)">
       <use xlink:href="#DejaVuSans-54"/>
      </g>
     </g>
    </g>
    <g id="xtick_7">
     <g id="line2d_7">
      <g>
       <use style="stroke:#000000;stroke-width:0.3;" x="382.193052" xlink:href="#m229f72d646" y="94.2"/>
      </g>
     </g>
     <g id="text_7">
      <!-- 7 -->
      <defs>
       <path d="M 8.203125 72.90625 
L 55.078125 72.90625 
L 55.078125 68.703125 
L 28.609375 0 
L 18.3125 0 
L 43.21875 64.59375 
L 8.203125 64.59375 
z
" id="DejaVuSans-55"/>
      </defs>
      <g style="fill:#444443;" transform="translate(377.739302 111.837813)scale(0.14 -0.14)">
       <use xlink:href="#DejaVuSans-55"/>
      </g>
     </g>
    </g>
    <g id="text_8">
     <!-- petal length (cm) -->
     <defs>
      <path d="M 6.59375 -19.875 
L 6.59375 51.859375 
L 14.59375 51.859375 
L 14.59375 45.125 
Q 17.4375 49.078125 21 51.046875 
Q 24.5625 53.03125 29.640625 53.03125 
Q 36.28125 53.03125 41.359375 49.609375 
Q 46.4375 46.1875 49.015625 39.953125 
Q 51.609375 33.734375 51.609375 26.3125 
Q 51.609375 18.359375 48.75 11.984375 
Q 45.90625 5.609375 40.453125 2.21875 
Q 35.015625 -1.171875 29 -1.171875 
Q 24.609375 -1.171875 21.109375 0.6875 
Q 17.625 2.546875 15.375 5.375 
L 15.375 -19.875 
z
M 14.546875 25.640625 
Q 14.546875 15.625 18.59375 10.84375 
Q 22.65625 6.0625 28.421875 6.0625 
Q 34.28125 6.0625 38.453125 11.015625 
Q 42.625 15.96875 42.625 26.375 
Q 42.625 36.28125 38.546875 41.203125 
Q 34.46875 46.140625 28.8125 46.140625 
Q 23.1875 46.140625 18.859375 40.890625 
Q 14.546875 35.640625 14.546875 25.640625 
z
" id="ArialMT-112"/>
      <path d="M 42.09375 16.703125 
L 51.171875 15.578125 
Q 49.03125 7.625 43.21875 3.21875 
Q 37.40625 -1.171875 28.375 -1.171875 
Q 17 -1.171875 10.328125 5.828125 
Q 3.65625 12.84375 3.65625 25.484375 
Q 3.65625 38.578125 10.390625 45.796875 
Q 17.140625 53.03125 27.875 53.03125 
Q 38.28125 53.03125 44.875 45.953125 
Q 51.46875 38.875 51.46875 26.03125 
Q 51.46875 25.25 51.421875 23.6875 
L 12.75 23.6875 
Q 13.234375 15.140625 17.578125 10.59375 
Q 21.921875 6.0625 28.421875 6.0625 
Q 33.25 6.0625 36.671875 8.59375 
Q 40.09375 11.140625 42.09375 16.703125 
z
M 13.234375 30.90625 
L 42.1875 30.90625 
Q 41.609375 37.453125 38.875 40.71875 
Q 34.671875 45.796875 27.984375 45.796875 
Q 21.921875 45.796875 17.796875 41.75 
Q 13.671875 37.703125 13.234375 30.90625 
z
" id="ArialMT-101"/>
      <path d="M 25.78125 7.859375 
L 27.046875 0.09375 
Q 23.34375 -0.6875 20.40625 -0.6875 
Q 15.625 -0.6875 12.984375 0.828125 
Q 10.359375 2.34375 9.28125 4.8125 
Q 8.203125 7.28125 8.203125 15.1875 
L 8.203125 45.015625 
L 1.765625 45.015625 
L 1.765625 51.859375 
L 8.203125 51.859375 
L 8.203125 64.703125 
L 16.9375 69.96875 
L 16.9375 51.859375 
L 25.78125 51.859375 
L 25.78125 45.015625 
L 16.9375 45.015625 
L 16.9375 14.703125 
Q 16.9375 10.9375 17.40625 9.859375 
Q 17.875 8.796875 18.921875 8.15625 
Q 19.96875 7.515625 21.921875 7.515625 
Q 23.390625 7.515625 25.78125 7.859375 
z
" id="ArialMT-116"/>
      <path d="M 40.4375 6.390625 
Q 35.546875 2.25 31.03125 0.53125 
Q 26.515625 -1.171875 21.34375 -1.171875 
Q 12.796875 -1.171875 8.203125 3 
Q 3.609375 7.171875 3.609375 13.671875 
Q 3.609375 17.484375 5.34375 20.625 
Q 7.078125 23.78125 9.890625 25.6875 
Q 12.703125 27.59375 16.21875 28.5625 
Q 18.796875 29.25 24.03125 29.890625 
Q 34.671875 31.15625 39.703125 32.90625 
Q 39.75 34.71875 39.75 35.203125 
Q 39.75 40.578125 37.25 42.78125 
Q 33.890625 45.75 27.25 45.75 
Q 21.046875 45.75 18.09375 43.578125 
Q 15.140625 41.40625 13.71875 35.890625 
L 5.125 37.0625 
Q 6.296875 42.578125 8.984375 45.96875 
Q 11.671875 49.359375 16.75 51.1875 
Q 21.828125 53.03125 28.515625 53.03125 
Q 35.15625 53.03125 39.296875 51.46875 
Q 43.453125 49.90625 45.40625 47.53125 
Q 47.359375 45.171875 48.140625 41.546875 
Q 48.578125 39.3125 48.578125 33.453125 
L 48.578125 21.734375 
Q 48.578125 9.46875 49.140625 6.21875 
Q 49.703125 2.984375 51.375 0 
L 42.1875 0 
Q 40.828125 2.734375 40.4375 6.390625 
z
M 39.703125 26.03125 
Q 34.90625 24.078125 25.34375 22.703125 
Q 19.921875 21.921875 17.671875 20.9375 
Q 15.4375 19.96875 14.203125 18.09375 
Q 12.984375 16.21875 12.984375 13.921875 
Q 12.984375 10.40625 15.640625 8.0625 
Q 18.3125 5.71875 23.4375 5.71875 
Q 28.515625 5.71875 32.46875 7.9375 
Q 36.421875 10.15625 38.28125 14.015625 
Q 39.703125 17 39.703125 22.796875 
z
" id="ArialMT-97"/>
      <path d="M 6.390625 0 
L 6.390625 71.578125 
L 15.1875 71.578125 
L 15.1875 0 
z
" id="ArialMT-108"/>
      <path id="ArialMT-32"/>
      <path d="M 6.59375 0 
L 6.59375 51.859375 
L 14.5 51.859375 
L 14.5 44.484375 
Q 20.21875 53.03125 31 53.03125 
Q 35.6875 53.03125 39.625 51.34375 
Q 43.5625 49.65625 45.515625 46.921875 
Q 47.46875 44.1875 48.25 40.4375 
Q 48.734375 37.984375 48.734375 31.890625 
L 48.734375 0 
L 39.9375 0 
L 39.9375 31.546875 
Q 39.9375 36.921875 38.90625 39.578125 
Q 37.890625 42.234375 35.28125 43.8125 
Q 32.671875 45.40625 29.15625 45.40625 
Q 23.53125 45.40625 19.453125 41.84375 
Q 15.375 38.28125 15.375 28.328125 
L 15.375 0 
z
" id="ArialMT-110"/>
      <path d="M 4.984375 -4.296875 
L 13.53125 -5.5625 
Q 14.0625 -9.515625 16.5 -11.328125 
Q 19.78125 -13.765625 25.4375 -13.765625 
Q 31.546875 -13.765625 34.859375 -11.328125 
Q 38.1875 -8.890625 39.359375 -4.5 
Q 40.046875 -1.8125 39.984375 6.78125 
Q 34.234375 0 25.640625 0 
Q 14.9375 0 9.078125 7.71875 
Q 3.21875 15.4375 3.21875 26.21875 
Q 3.21875 33.640625 5.90625 39.90625 
Q 8.59375 46.1875 13.6875 49.609375 
Q 18.796875 53.03125 25.6875 53.03125 
Q 34.859375 53.03125 40.828125 45.609375 
L 40.828125 51.859375 
L 48.921875 51.859375 
L 48.921875 7.03125 
Q 48.921875 -5.078125 46.453125 -10.125 
Q 44 -15.1875 38.640625 -18.109375 
Q 33.296875 -21.046875 25.484375 -21.046875 
Q 16.21875 -21.046875 10.5 -16.875 
Q 4.78125 -12.703125 4.984375 -4.296875 
z
M 12.25 26.859375 
Q 12.25 16.65625 16.296875 11.96875 
Q 20.359375 7.28125 26.46875 7.28125 
Q 32.515625 7.28125 36.609375 11.9375 
Q 40.71875 16.609375 40.71875 26.5625 
Q 40.71875 36.078125 36.5 40.90625 
Q 32.28125 45.75 26.3125 45.75 
Q 20.453125 45.75 16.34375 40.984375 
Q 12.25 36.234375 12.25 26.859375 
z
" id="ArialMT-103"/>
      <path d="M 6.59375 0 
L 6.59375 71.578125 
L 15.375 71.578125 
L 15.375 45.90625 
Q 21.53125 53.03125 30.90625 53.03125 
Q 36.671875 53.03125 40.921875 50.75 
Q 45.171875 48.484375 47 44.484375 
Q 48.828125 40.484375 48.828125 32.859375 
L 48.828125 0 
L 40.046875 0 
L 40.046875 32.859375 
Q 40.046875 39.453125 37.1875 42.453125 
Q 34.328125 45.453125 29.109375 45.453125 
Q 25.203125 45.453125 21.75 43.421875 
Q 18.3125 41.40625 16.84375 37.9375 
Q 15.375 34.46875 15.375 28.375 
L 15.375 0 
z
" id="ArialMT-104"/>
      <path d="M 23.390625 -21.046875 
Q 16.109375 -11.859375 11.078125 0.4375 
Q 6.0625 12.75 6.0625 25.921875 
Q 6.0625 37.546875 9.8125 48.1875 
Q 14.203125 60.546875 23.390625 72.796875 
L 29.6875 72.796875 
Q 23.78125 62.640625 21.875 58.296875 
Q 18.890625 51.5625 17.1875 44.234375 
Q 15.09375 35.109375 15.09375 25.875 
Q 15.09375 2.390625 29.6875 -21.046875 
z
" id="ArialMT-40"/>
      <path d="M 40.4375 19 
L 49.078125 17.875 
Q 47.65625 8.9375 41.8125 3.875 
Q 35.984375 -1.171875 27.484375 -1.171875 
Q 16.84375 -1.171875 10.375 5.78125 
Q 3.90625 12.75 3.90625 25.734375 
Q 3.90625 34.125 6.6875 40.421875 
Q 9.46875 46.734375 15.15625 49.875 
Q 20.84375 53.03125 27.546875 53.03125 
Q 35.984375 53.03125 41.359375 48.75 
Q 46.734375 44.484375 48.25 36.625 
L 39.703125 35.296875 
Q 38.484375 40.53125 35.375 43.15625 
Q 32.28125 45.796875 27.875 45.796875 
Q 21.234375 45.796875 17.078125 41.03125 
Q 12.9375 36.28125 12.9375 25.984375 
Q 12.9375 15.53125 16.9375 10.796875 
Q 20.953125 6.0625 27.390625 6.0625 
Q 32.5625 6.0625 36.03125 9.234375 
Q 39.5 12.40625 40.4375 19 
z
" id="ArialMT-99"/>
      <path d="M 6.59375 0 
L 6.59375 51.859375 
L 14.453125 51.859375 
L 14.453125 44.578125 
Q 16.890625 48.390625 20.9375 50.703125 
Q 25 53.03125 30.171875 53.03125 
Q 35.9375 53.03125 39.625 50.640625 
Q 43.3125 48.25 44.828125 43.953125 
Q 50.984375 53.03125 60.84375 53.03125 
Q 68.5625 53.03125 72.703125 48.75 
Q 76.859375 44.484375 76.859375 35.59375 
L 76.859375 0 
L 68.109375 0 
L 68.109375 32.671875 
Q 68.109375 37.9375 67.25 40.25 
Q 66.40625 42.578125 64.15625 43.984375 
Q 61.921875 45.40625 58.890625 45.40625 
Q 53.421875 45.40625 49.796875 41.765625 
Q 46.1875 38.140625 46.1875 30.125 
L 46.1875 0 
L 37.40625 0 
L 37.40625 33.6875 
Q 37.40625 39.546875 35.25 42.46875 
Q 33.109375 45.40625 28.21875 45.40625 
Q 24.515625 45.40625 21.359375 43.453125 
Q 18.21875 41.5 16.796875 37.734375 
Q 15.375 33.984375 15.375 26.90625 
L 15.375 0 
z
" id="ArialMT-109"/>
      <path d="M 12.359375 -21.046875 
L 6.0625 -21.046875 
Q 20.65625 2.390625 20.65625 25.875 
Q 20.65625 35.0625 18.5625 44.09375 
Q 16.890625 51.421875 13.921875 58.15625 
Q 12.015625 62.546875 6.0625 72.796875 
L 12.359375 72.796875 
Q 21.53125 60.546875 25.921875 48.1875 
Q 29.6875 37.546875 29.6875 25.921875 
Q 29.6875 12.75 24.625 0.4375 
Q 19.578125 -11.859375 12.359375 -21.046875 
z
" id="ArialMT-41"/>
     </defs>
     <g style="fill:#444443;" transform="translate(163.869688 128.940938)scale(0.14 -0.14)">
      <use xlink:href="#ArialMT-112"/>
      <use x="55.615234" xlink:href="#ArialMT-101"/>
      <use x="111.230469" xlink:href="#ArialMT-116"/>
      <use x="139.013672" xlink:href="#ArialMT-97"/>
      <use x="194.628906" xlink:href="#ArialMT-108"/>
      <use x="216.845703" xlink:href="#ArialMT-32"/>
      <use x="244.628906" xlink:href="#ArialMT-108"/>
      <use x="266.845703" xlink:href="#ArialMT-101"/>
      <use x="322.460938" xlink:href="#ArialMT-110"/>
      <use x="378.076172" xlink:href="#ArialMT-103"/>
      <use x="433.691406" xlink:href="#ArialMT-116"/>
      <use x="461.474609" xlink:href="#ArialMT-104"/>
      <use x="517.089844" xlink:href="#ArialMT-32"/>
      <use x="544.873047" xlink:href="#ArialMT-40"/>
      <use x="578.173828" xlink:href="#ArialMT-99"/>
      <use x="628.173828" xlink:href="#ArialMT-109"/>
      <use x="711.474609" xlink:href="#ArialMT-41"/>
     </g>
    </g>
   </g>
   <g id="line2d_8">
    <path clip-path="url(#p77cdd48408)" d="M 133.305208 94.2 
L 133.305208 27.8 
" style="fill:none;stroke:#444443;stroke-dasharray:3.7,1.6;stroke-dashoffset:0;"/>
   </g>
   <g id="line2d_9">
    <path clip-path="url(#p77cdd48408)" d="M 259.116646 94.2 
L 259.116646 27.8 
" style="fill:none;stroke:#444443;stroke-dasharray:3.7,1.6;stroke-dashoffset:0;"/>
   </g>
   <g id="patch_6">
    <path d="M 19.525 94.2 
L 412.475 94.2 
" style="fill:none;stroke:#000000;stroke-linecap:square;stroke-linejoin:miter;stroke-width:0.3;"/>
   </g>
   <g id="text_9">
    <!-- Classifier tree depth 2, training accuracy=95.33% -->
    <defs>
     <path d="M 64.40625 67.28125 
L 64.40625 56.890625 
Q 59.421875 61.53125 53.78125 63.8125 
Q 48.140625 66.109375 41.796875 66.109375 
Q 29.296875 66.109375 22.65625 58.46875 
Q 16.015625 50.828125 16.015625 36.375 
Q 16.015625 21.96875 22.65625 14.328125 
Q 29.296875 6.6875 41.796875 6.6875 
Q 48.140625 6.6875 53.78125 8.984375 
Q 59.421875 11.28125 64.40625 15.921875 
L 64.40625 5.609375 
Q 59.234375 2.09375 53.4375 0.328125 
Q 47.65625 -1.421875 41.21875 -1.421875 
Q 24.65625 -1.421875 15.125 8.703125 
Q 5.609375 18.84375 5.609375 36.375 
Q 5.609375 53.953125 15.125 64.078125 
Q 24.65625 74.21875 41.21875 74.21875 
Q 47.75 74.21875 53.53125 72.484375 
Q 59.328125 70.75 64.40625 67.28125 
z
" id="DejaVuSans-67"/>
     <path d="M 9.421875 75.984375 
L 18.40625 75.984375 
L 18.40625 0 
L 9.421875 0 
z
" id="DejaVuSans-108"/>
     <path d="M 34.28125 27.484375 
Q 23.390625 27.484375 19.1875 25 
Q 14.984375 22.515625 14.984375 16.5 
Q 14.984375 11.71875 18.140625 8.90625 
Q 21.296875 6.109375 26.703125 6.109375 
Q 34.1875 6.109375 38.703125 11.40625 
Q 43.21875 16.703125 43.21875 25.484375 
L 43.21875 27.484375 
z
M 52.203125 31.203125 
L 52.203125 0 
L 43.21875 0 
L 43.21875 8.296875 
Q 40.140625 3.328125 35.546875 0.953125 
Q 30.953125 -1.421875 24.3125 -1.421875 
Q 15.921875 -1.421875 10.953125 3.296875 
Q 6 8.015625 6 15.921875 
Q 6 25.140625 12.171875 29.828125 
Q 18.359375 34.515625 30.609375 34.515625 
L 43.21875 34.515625 
L 43.21875 35.40625 
Q 43.21875 41.609375 39.140625 45 
Q 35.0625 48.390625 27.6875 48.390625 
Q 23 48.390625 18.546875 47.265625 
Q 14.109375 46.140625 10.015625 43.890625 
L 10.015625 52.203125 
Q 14.9375 54.109375 19.578125 55.046875 
Q 24.21875 56 28.609375 56 
Q 40.484375 56 46.34375 49.84375 
Q 52.203125 43.703125 52.203125 31.203125 
z
" id="DejaVuSans-97"/>
     <path d="M 44.28125 53.078125 
L 44.28125 44.578125 
Q 40.484375 46.53125 36.375 47.5 
Q 32.28125 48.484375 27.875 48.484375 
Q 21.1875 48.484375 17.84375 46.4375 
Q 14.5 44.390625 14.5 40.28125 
Q 14.5 37.15625 16.890625 35.375 
Q 19.28125 33.59375 26.515625 31.984375 
L 29.59375 31.296875 
Q 39.15625 29.25 43.1875 25.515625 
Q 47.21875 21.78125 47.21875 15.09375 
Q 47.21875 7.46875 41.1875 3.015625 
Q 35.15625 -1.421875 24.609375 -1.421875 
Q 20.21875 -1.421875 15.453125 -0.5625 
Q 10.6875 0.296875 5.421875 2 
L 5.421875 11.28125 
Q 10.40625 8.6875 15.234375 7.390625 
Q 20.0625 6.109375 24.8125 6.109375 
Q 31.15625 6.109375 34.5625 8.28125 
Q 37.984375 10.453125 37.984375 14.40625 
Q 37.984375 18.0625 35.515625 20.015625 
Q 33.0625 21.96875 24.703125 23.78125 
L 21.578125 24.515625 
Q 13.234375 26.265625 9.515625 29.90625 
Q 5.8125 33.546875 5.8125 39.890625 
Q 5.8125 47.609375 11.28125 51.796875 
Q 16.75 56 26.8125 56 
Q 31.78125 56 36.171875 55.265625 
Q 40.578125 54.546875 44.28125 53.078125 
z
" id="DejaVuSans-115"/>
     <path d="M 9.421875 54.6875 
L 18.40625 54.6875 
L 18.40625 0 
L 9.421875 0 
z
M 9.421875 75.984375 
L 18.40625 75.984375 
L 18.40625 64.59375 
L 9.421875 64.59375 
z
" id="DejaVuSans-105"/>
     <path d="M 37.109375 75.984375 
L 37.109375 68.5 
L 28.515625 68.5 
Q 23.6875 68.5 21.796875 66.546875 
Q 19.921875 64.59375 19.921875 59.515625 
L 19.921875 54.6875 
L 34.71875 54.6875 
L 34.71875 47.703125 
L 19.921875 47.703125 
L 19.921875 0 
L 10.890625 0 
L 10.890625 47.703125 
L 2.296875 47.703125 
L 2.296875 54.6875 
L 10.890625 54.6875 
L 10.890625 58.5 
Q 10.890625 67.625 15.140625 71.796875 
Q 19.390625 75.984375 28.609375 75.984375 
z
" id="DejaVuSans-102"/>
     <path d="M 56.203125 29.59375 
L 56.203125 25.203125 
L 14.890625 25.203125 
Q 15.484375 15.921875 20.484375 11.0625 
Q 25.484375 6.203125 34.421875 6.203125 
Q 39.59375 6.203125 44.453125 7.46875 
Q 49.3125 8.734375 54.109375 11.28125 
L 54.109375 2.78125 
Q 49.265625 0.734375 44.1875 -0.34375 
Q 39.109375 -1.421875 33.890625 -1.421875 
Q 20.796875 -1.421875 13.15625 6.1875 
Q 5.515625 13.8125 5.515625 26.8125 
Q 5.515625 40.234375 12.765625 48.109375 
Q 20.015625 56 32.328125 56 
Q 43.359375 56 49.78125 48.890625 
Q 56.203125 41.796875 56.203125 29.59375 
z
M 47.21875 32.234375 
Q 47.125 39.59375 43.09375 43.984375 
Q 39.0625 48.390625 32.421875 48.390625 
Q 24.90625 48.390625 20.390625 44.140625 
Q 15.875 39.890625 15.1875 32.171875 
z
" id="DejaVuSans-101"/>
     <path d="M 41.109375 46.296875 
Q 39.59375 47.171875 37.8125 47.578125 
Q 36.03125 48 33.890625 48 
Q 26.265625 48 22.1875 43.046875 
Q 18.109375 38.09375 18.109375 28.8125 
L 18.109375 0 
L 9.078125 0 
L 9.078125 54.6875 
L 18.109375 54.6875 
L 18.109375 46.1875 
Q 20.953125 51.171875 25.484375 53.578125 
Q 30.03125 56 36.53125 56 
Q 37.453125 56 38.578125 55.875 
Q 39.703125 55.765625 41.0625 55.515625 
z
" id="DejaVuSans-114"/>
     <path id="DejaVuSans-32"/>
     <path d="M 18.3125 70.21875 
L 18.3125 54.6875 
L 36.8125 54.6875 
L 36.8125 47.703125 
L 18.3125 47.703125 
L 18.3125 18.015625 
Q 18.3125 11.328125 20.140625 9.421875 
Q 21.96875 7.515625 27.59375 7.515625 
L 36.8125 7.515625 
L 36.8125 0 
L 27.59375 0 
Q 17.1875 0 13.234375 3.875 
Q 9.28125 7.765625 9.28125 18.015625 
L 9.28125 47.703125 
L 2.6875 47.703125 
L 2.6875 54.6875 
L 9.28125 54.6875 
L 9.28125 70.21875 
z
" id="DejaVuSans-116"/>
     <path d="M 45.40625 46.390625 
L 45.40625 75.984375 
L 54.390625 75.984375 
L 54.390625 0 
L 45.40625 0 
L 45.40625 8.203125 
Q 42.578125 3.328125 38.25 0.953125 
Q 33.9375 -1.421875 27.875 -1.421875 
Q 17.96875 -1.421875 11.734375 6.484375 
Q 5.515625 14.40625 5.515625 27.296875 
Q 5.515625 40.1875 11.734375 48.09375 
Q 17.96875 56 27.875 56 
Q 33.9375 56 38.25 53.625 
Q 42.578125 51.265625 45.40625 46.390625 
z
M 14.796875 27.296875 
Q 14.796875 17.390625 18.875 11.75 
Q 22.953125 6.109375 30.078125 6.109375 
Q 37.203125 6.109375 41.296875 11.75 
Q 45.40625 17.390625 45.40625 27.296875 
Q 45.40625 37.203125 41.296875 42.84375 
Q 37.203125 48.484375 30.078125 48.484375 
Q 22.953125 48.484375 18.875 42.84375 
Q 14.796875 37.203125 14.796875 27.296875 
z
" id="DejaVuSans-100"/>
     <path d="M 18.109375 8.203125 
L 18.109375 -20.796875 
L 9.078125 -20.796875 
L 9.078125 54.6875 
L 18.109375 54.6875 
L 18.109375 46.390625 
Q 20.953125 51.265625 25.265625 53.625 
Q 29.59375 56 35.59375 56 
Q 45.5625 56 51.78125 48.09375 
Q 58.015625 40.1875 58.015625 27.296875 
Q 58.015625 14.40625 51.78125 6.484375 
Q 45.5625 -1.421875 35.59375 -1.421875 
Q 29.59375 -1.421875 25.265625 0.953125 
Q 20.953125 3.328125 18.109375 8.203125 
z
M 48.6875 27.296875 
Q 48.6875 37.203125 44.609375 42.84375 
Q 40.53125 48.484375 33.40625 48.484375 
Q 26.265625 48.484375 22.1875 42.84375 
Q 18.109375 37.203125 18.109375 27.296875 
Q 18.109375 17.390625 22.1875 11.75 
Q 26.265625 6.109375 33.40625 6.109375 
Q 40.53125 6.109375 44.609375 11.75 
Q 48.6875 17.390625 48.6875 27.296875 
z
" id="DejaVuSans-112"/>
     <path d="M 54.890625 33.015625 
L 54.890625 0 
L 45.90625 0 
L 45.90625 32.71875 
Q 45.90625 40.484375 42.875 44.328125 
Q 39.84375 48.1875 33.796875 48.1875 
Q 26.515625 48.1875 22.3125 43.546875 
Q 18.109375 38.921875 18.109375 30.90625 
L 18.109375 0 
L 9.078125 0 
L 9.078125 75.984375 
L 18.109375 75.984375 
L 18.109375 46.1875 
Q 21.34375 51.125 25.703125 53.5625 
Q 30.078125 56 35.796875 56 
Q 45.21875 56 50.046875 50.171875 
Q 54.890625 44.34375 54.890625 33.015625 
z
" id="DejaVuSans-104"/>
     <path d="M 11.71875 12.40625 
L 22.015625 12.40625 
L 22.015625 4 
L 14.015625 -11.625 
L 7.71875 -11.625 
L 11.71875 4 
z
" id="DejaVuSans-44"/>
     <path d="M 54.890625 33.015625 
L 54.890625 0 
L 45.90625 0 
L 45.90625 32.71875 
Q 45.90625 40.484375 42.875 44.328125 
Q 39.84375 48.1875 33.796875 48.1875 
Q 26.515625 48.1875 22.3125 43.546875 
Q 18.109375 38.921875 18.109375 30.90625 
L 18.109375 0 
L 9.078125 0 
L 9.078125 54.6875 
L 18.109375 54.6875 
L 18.109375 46.1875 
Q 21.34375 51.125 25.703125 53.5625 
Q 30.078125 56 35.796875 56 
Q 45.21875 56 50.046875 50.171875 
Q 54.890625 44.34375 54.890625 33.015625 
z
" id="DejaVuSans-110"/>
     <path d="M 45.40625 27.984375 
Q 45.40625 37.75 41.375 43.109375 
Q 37.359375 48.484375 30.078125 48.484375 
Q 22.859375 48.484375 18.828125 43.109375 
Q 14.796875 37.75 14.796875 27.984375 
Q 14.796875 18.265625 18.828125 12.890625 
Q 22.859375 7.515625 30.078125 7.515625 
Q 37.359375 7.515625 41.375 12.890625 
Q 45.40625 18.265625 45.40625 27.984375 
z
M 54.390625 6.78125 
Q 54.390625 -7.171875 48.1875 -13.984375 
Q 42 -20.796875 29.203125 -20.796875 
Q 24.46875 -20.796875 20.265625 -20.09375 
Q 16.0625 -19.390625 12.109375 -17.921875 
L 12.109375 -9.1875 
Q 16.0625 -11.328125 19.921875 -12.34375 
Q 23.78125 -13.375 27.78125 -13.375 
Q 36.625 -13.375 41.015625 -8.765625 
Q 45.40625 -4.15625 45.40625 5.171875 
L 45.40625 9.625 
Q 42.625 4.78125 38.28125 2.390625 
Q 33.9375 0 27.875 0 
Q 17.828125 0 11.671875 7.65625 
Q 5.515625 15.328125 5.515625 27.984375 
Q 5.515625 40.671875 11.671875 48.328125 
Q 17.828125 56 27.875 56 
Q 33.9375 56 38.28125 53.609375 
Q 42.625 51.21875 45.40625 46.390625 
L 45.40625 54.6875 
L 54.390625 54.6875 
z
" id="DejaVuSans-103"/>
     <path d="M 48.78125 52.59375 
L 48.78125 44.1875 
Q 44.96875 46.296875 41.140625 47.34375 
Q 37.3125 48.390625 33.40625 48.390625 
Q 24.65625 48.390625 19.8125 42.84375 
Q 14.984375 37.3125 14.984375 27.296875 
Q 14.984375 17.28125 19.8125 11.734375 
Q 24.65625 6.203125 33.40625 6.203125 
Q 37.3125 6.203125 41.140625 7.25 
Q 44.96875 8.296875 48.78125 10.40625 
L 48.78125 2.09375 
Q 45.015625 0.34375 40.984375 -0.53125 
Q 36.96875 -1.421875 32.421875 -1.421875 
Q 20.0625 -1.421875 12.78125 6.34375 
Q 5.515625 14.109375 5.515625 27.296875 
Q 5.515625 40.671875 12.859375 48.328125 
Q 20.21875 56 33.015625 56 
Q 37.15625 56 41.109375 55.140625 
Q 45.0625 54.296875 48.78125 52.59375 
z
" id="DejaVuSans-99"/>
     <path d="M 8.5 21.578125 
L 8.5 54.6875 
L 17.484375 54.6875 
L 17.484375 21.921875 
Q 17.484375 14.15625 20.5 10.265625 
Q 23.53125 6.390625 29.59375 6.390625 
Q 36.859375 6.390625 41.078125 11.03125 
Q 45.3125 15.671875 45.3125 23.6875 
L 45.3125 54.6875 
L 54.296875 54.6875 
L 54.296875 0 
L 45.3125 0 
L 45.3125 8.40625 
Q 42.046875 3.421875 37.71875 1 
Q 33.40625 -1.421875 27.6875 -1.421875 
Q 18.265625 -1.421875 13.375 4.4375 
Q 8.5 10.296875 8.5 21.578125 
z
M 31.109375 56 
z
" id="DejaVuSans-117"/>
     <path d="M 32.171875 -5.078125 
Q 28.375 -14.84375 24.75 -17.8125 
Q 21.140625 -20.796875 15.09375 -20.796875 
L 7.90625 -20.796875 
L 7.90625 -13.28125 
L 13.1875 -13.28125 
Q 16.890625 -13.28125 18.9375 -11.515625 
Q 21 -9.765625 23.484375 -3.21875 
L 25.09375 0.875 
L 2.984375 54.6875 
L 12.5 54.6875 
L 29.59375 11.921875 
L 46.6875 54.6875 
L 56.203125 54.6875 
z
" id="DejaVuSans-121"/>
     <path d="M 10.59375 45.40625 
L 73.1875 45.40625 
L 73.1875 37.203125 
L 10.59375 37.203125 
z
M 10.59375 25.484375 
L 73.1875 25.484375 
L 73.1875 17.1875 
L 10.59375 17.1875 
z
" id="DejaVuSans-61"/>
     <path d="M 10.984375 1.515625 
L 10.984375 10.5 
Q 14.703125 8.734375 18.5 7.8125 
Q 22.3125 6.890625 25.984375 6.890625 
Q 35.75 6.890625 40.890625 13.453125 
Q 46.046875 20.015625 46.78125 33.40625 
Q 43.953125 29.203125 39.59375 26.953125 
Q 35.25 24.703125 29.984375 24.703125 
Q 19.046875 24.703125 12.671875 31.3125 
Q 6.296875 37.9375 6.296875 49.421875 
Q 6.296875 60.640625 12.9375 67.421875 
Q 19.578125 74.21875 30.609375 74.21875 
Q 43.265625 74.21875 49.921875 64.515625 
Q 56.59375 54.828125 56.59375 36.375 
Q 56.59375 19.140625 48.40625 8.859375 
Q 40.234375 -1.421875 26.421875 -1.421875 
Q 22.703125 -1.421875 18.890625 -0.6875 
Q 15.09375 0.046875 10.984375 1.515625 
z
M 30.609375 32.421875 
Q 37.25 32.421875 41.125 36.953125 
Q 45.015625 41.5 45.015625 49.421875 
Q 45.015625 57.28125 41.125 61.84375 
Q 37.25 66.40625 30.609375 66.40625 
Q 23.96875 66.40625 20.09375 61.84375 
Q 16.21875 57.28125 16.21875 49.421875 
Q 16.21875 41.5 20.09375 36.953125 
Q 23.96875 32.421875 30.609375 32.421875 
z
" id="DejaVuSans-57"/>
     <path d="M 10.6875 12.40625 
L 21 12.40625 
L 21 0 
L 10.6875 0 
z
" id="DejaVuSans-46"/>
     <path d="M 72.703125 32.078125 
Q 68.453125 32.078125 66.03125 28.46875 
Q 63.625 24.859375 63.625 18.40625 
Q 63.625 12.0625 66.03125 8.421875 
Q 68.453125 4.78125 72.703125 4.78125 
Q 76.859375 4.78125 79.265625 8.421875 
Q 81.6875 12.0625 81.6875 18.40625 
Q 81.6875 24.8125 79.265625 28.4375 
Q 76.859375 32.078125 72.703125 32.078125 
z
M 72.703125 38.28125 
Q 80.421875 38.28125 84.953125 32.90625 
Q 89.5 27.546875 89.5 18.40625 
Q 89.5 9.28125 84.9375 3.921875 
Q 80.375 -1.421875 72.703125 -1.421875 
Q 64.890625 -1.421875 60.34375 3.921875 
Q 55.8125 9.28125 55.8125 18.40625 
Q 55.8125 27.59375 60.375 32.9375 
Q 64.9375 38.28125 72.703125 38.28125 
z
M 22.3125 68.015625 
Q 18.109375 68.015625 15.6875 64.375 
Q 13.28125 60.75 13.28125 54.390625 
Q 13.28125 47.953125 15.671875 44.328125 
Q 18.0625 40.71875 22.3125 40.71875 
Q 26.5625 40.71875 28.96875 44.328125 
Q 31.390625 47.953125 31.390625 54.390625 
Q 31.390625 60.6875 28.953125 64.34375 
Q 26.515625 68.015625 22.3125 68.015625 
z
M 66.40625 74.21875 
L 74.21875 74.21875 
L 28.609375 -1.421875 
L 20.796875 -1.421875 
z
M 22.3125 74.21875 
Q 30.03125 74.21875 34.609375 68.875 
Q 39.203125 63.53125 39.203125 54.390625 
Q 39.203125 45.171875 34.640625 39.84375 
Q 30.078125 34.515625 22.3125 34.515625 
Q 14.546875 34.515625 10.03125 39.859375 
Q 5.515625 45.21875 5.515625 54.390625 
Q 5.515625 63.484375 10.046875 68.84375 
Q 14.59375 74.21875 22.3125 74.21875 
z
" id="DejaVuSans-37"/>
    </defs>
    <g style="fill:#444443;" transform="translate(40.377656 21.8)scale(0.14 -0.14)">
     <use xlink:href="#DejaVuSans-67"/>
     <use x="69.824219" xlink:href="#DejaVuSans-108"/>
     <use x="97.607422" xlink:href="#DejaVuSans-97"/>
     <use x="158.886719" xlink:href="#DejaVuSans-115"/>
     <use x="210.986328" xlink:href="#DejaVuSans-115"/>
     <use x="263.085938" xlink:href="#DejaVuSans-105"/>
     <use x="290.869141" xlink:href="#DejaVuSans-102"/>
     <use x="326.074219" xlink:href="#DejaVuSans-105"/>
     <use x="353.857422" xlink:href="#DejaVuSans-101"/>
     <use x="415.380859" xlink:href="#DejaVuSans-114"/>
     <use x="456.494141" xlink:href="#DejaVuSans-32"/>
     <use x="488.28125" xlink:href="#DejaVuSans-116"/>
     <use x="527.490234" xlink:href="#DejaVuSans-114"/>
     <use x="568.572266" xlink:href="#DejaVuSans-101"/>
     <use x="630.095703" xlink:href="#DejaVuSans-101"/>
     <use x="691.619141" xlink:href="#DejaVuSans-32"/>
     <use x="723.40625" xlink:href="#DejaVuSans-100"/>
     <use x="786.882812" xlink:href="#DejaVuSans-101"/>
     <use x="848.40625" xlink:href="#DejaVuSans-112"/>
     <use x="911.882812" xlink:href="#DejaVuSans-116"/>
     <use x="951.091797" xlink:href="#DejaVuSans-104"/>
     <use x="1014.470703" xlink:href="#DejaVuSans-32"/>
     <use x="1046.257812" xlink:href="#DejaVuSans-50"/>
     <use x="1109.880859" xlink:href="#DejaVuSans-44"/>
     <use x="1141.667969" xlink:href="#DejaVuSans-32"/>
     <use x="1173.455078" xlink:href="#DejaVuSans-116"/>
     <use x="1212.664062" xlink:href="#DejaVuSans-114"/>
     <use x="1253.777344" xlink:href="#DejaVuSans-97"/>
     <use x="1315.056641" xlink:href="#DejaVuSans-105"/>
     <use x="1342.839844" xlink:href="#DejaVuSans-110"/>
     <use x="1406.21875" xlink:href="#DejaVuSans-105"/>
     <use x="1434.001953" xlink:href="#DejaVuSans-110"/>
     <use x="1497.380859" xlink:href="#DejaVuSans-103"/>
     <use x="1560.857422" xlink:href="#DejaVuSans-32"/>
     <use x="1592.644531" xlink:href="#DejaVuSans-97"/>
     <use x="1653.923828" xlink:href="#DejaVuSans-99"/>
     <use x="1708.904297" xlink:href="#DejaVuSans-99"/>
     <use x="1763.884766" xlink:href="#DejaVuSans-117"/>
     <use x="1827.263672" xlink:href="#DejaVuSans-114"/>
     <use x="1868.376953" xlink:href="#DejaVuSans-97"/>
     <use x="1929.65625" xlink:href="#DejaVuSans-99"/>
     <use x="1984.636719" xlink:href="#DejaVuSans-121"/>
     <use x="2043.816406" xlink:href="#DejaVuSans-61"/>
     <use x="2127.605469" xlink:href="#DejaVuSans-57"/>
     <use x="2191.228516" xlink:href="#DejaVuSans-53"/>
     <use x="2254.851562" xlink:href="#DejaVuSans-46"/>
     <use x="2286.638672" xlink:href="#DejaVuSans-51"/>
     <use x="2350.261719" xlink:href="#DejaVuSans-51"/>
     <use x="2413.884766" xlink:href="#DejaVuSans-37"/>
    </g>
   </g>
  </g>
 </g>
 <defs>
  <clipPath id="p77cdd48408">
   <rect height="66.4" width="392.95" x="19.525" y="27.8"/>
  </clipPath>
 </defs>
</svg>
