<?xml version="1.0" encoding="utf-8" standalone="no"?>
<!DOCTYPE svg PUBLIC "-//W3C//DTD SVG 1.1//EN"
  "http://www.w3.org/Graphics/SVG/1.1/DTD/svg11.dtd">
<!-- Created with matplotlib (https://matplotlib.org/) -->
<svg height="216pt" version="1.1" viewBox="0 0 288 216" width="288pt" xmlns="http://www.w3.org/2000/svg" xmlns:xlink="http://www.w3.org/1999/xlink">
 <defs>
  <style type="text/css">
*{stroke-linecap:butt;stroke-linejoin:round;}
  </style>
 </defs>
 <g id="figure_1">
  <g id="patch_1">
   <path d="M 0 216 
L 288 216 
L 288 0 
L 0 0 
z
" style="fill:#ffffff;"/>
  </g>
  <g id="axes_1">
   <g id="patch_2">
    <path d="M 42.175 170.2 
L 264.651957 170.2 
L 264.651957 14.3 
L 42.175 14.3 
z
" style="fill:#ffffff;"/>
   </g>
   <g id="PathCollection_1">
    <defs>
     <path d="M 0 2.5 
C 0.663008 2.5 1.29895 2.236584 1.767767 1.767767 
C 2.236584 1.29895 2.5 0.663008 2.5 0 
C 2.5 -0.663008 2.236584 -1.29895 1.767767 -1.767767 
C 1.29895 -2.236584 0.663008 -2.5 0 -2.5 
C -0.663008 -2.5 -1.29895 -2.236584 -1.767767 -1.767767 
C -2.236584 -1.29895 -2.5 -0.663008 -2.5 0 
C -2.5 0.663008 -2.236584 1.29895 -1.767767 1.767767 
C -1.29895 2.236584 -0.663008 2.5 0 2.5 
z
" id="m789cd39690" style="stroke:#000000;stroke-width:0.3;"/>
    </defs>
    <g clip-path="url(#pbfce6fa145)">
     <use style="fill:#fefebb;stroke:#000000;stroke-width:0.3;" x="166.898688" xlink:href="#m789cd39690" y="82.109631"/>
     <use style="fill:#fefebb;stroke:#000000;stroke-width:0.3;" x="164.761149" xlink:href="#m789cd39690" y="90.784672"/>
     <use style="fill:#fefebb;stroke:#000000;stroke-width:0.3;" x="183.998997" xlink:href="#m789cd39690" y="76.904606"/>
     <use style="fill:#fefebb;stroke:#000000;stroke-width:0.3;" x="226.037257" xlink:href="#m789cd39690" y="69.675405"/>
     <use style="fill:#fefebb;stroke:#000000;stroke-width:0.3;" x="119.872838" xlink:href="#m789cd39690" y="92.808848"/>
     <use style="fill:#fefebb;stroke:#000000;stroke-width:0.3;" x="221.762179" xlink:href="#m789cd39690" y="72.567085"/>
     <use style="fill:#fefebb;stroke:#000000;stroke-width:0.3;" x="198.961767" xlink:href="#m789cd39690" y="97.724705"/>
     <use style="fill:#fefebb;stroke:#000000;stroke-width:0.3;" x="199.67428" xlink:href="#m789cd39690" y="98.013873"/>
     <use style="fill:#fefebb;stroke:#000000;stroke-width:0.3;" x="164.048637" xlink:href="#m789cd39690" y="84.422975"/>
     <use style="fill:#fefebb;stroke:#000000;stroke-width:0.3;" x="164.048637" xlink:href="#m789cd39690" y="79.507118"/>
     <use style="fill:#fefebb;stroke:#000000;stroke-width:0.3;" x="230.312334" xlink:href="#m789cd39690" y="74.591262"/>
     <use style="fill:#fefebb;stroke:#000000;stroke-width:0.3;" x="197.536742" xlink:href="#m789cd39690" y="100.327217"/>
     <use style="fill:#fefebb;stroke:#000000;stroke-width:0.3;" x="203.236845" xlink:href="#m789cd39690" y="90.784672"/>
     <use style="fill:#fefebb;stroke:#000000;stroke-width:0.3;" x="179.011407" xlink:href="#m789cd39690" y="63.892044"/>
     <use style="fill:#fefebb;stroke:#000000;stroke-width:0.3;" x="235.584929" xlink:href="#m789cd39690" y="65.337884"/>
     <use style="fill:#fefebb;stroke:#000000;stroke-width:0.3;" x="201.811819" xlink:href="#m789cd39690" y="86.447151"/>
     <use style="fill:#fefebb;stroke:#000000;stroke-width:0.3;" x="197.536742" xlink:href="#m789cd39690" y="79.796286"/>
     <use style="fill:#fefebb;stroke:#000000;stroke-width:0.3;" x="176.161355" xlink:href="#m789cd39690" y="72.277917"/>
     <use style="fill:#fefebb;stroke:#000000;stroke-width:0.3;" x="254.537772" xlink:href="#m789cd39690" y="56.952011"/>
     <use style="fill:#fefebb;stroke:#000000;stroke-width:0.3;" x="135.548122" xlink:href="#m789cd39690" y="82.977135"/>
     <use style="fill:#fefebb;stroke:#000000;stroke-width:0.3;" x="126.285454" xlink:href="#m789cd39690" y="78.928782"/>
     <use style="fill:#fefebb;stroke:#000000;stroke-width:0.3;" x="124.860429" xlink:href="#m789cd39690" y="100.905553"/>
     <use style="fill:#fefebb;stroke:#000000;stroke-width:0.3;" x="162.623611" xlink:href="#m789cd39690" y="87.314656"/>
     <use style="fill:#fefebb;stroke:#000000;stroke-width:0.3;" x="159.773559" xlink:href="#m789cd39690" y="102.062226"/>
     <use style="fill:#fefebb;stroke:#000000;stroke-width:0.3;" x="135.548122" xlink:href="#m789cd39690" y="95.122193"/>
     <use style="fill:#fefebb;stroke:#000000;stroke-width:0.3;" x="133.410583" xlink:href="#m789cd39690" y="93.098016"/>
     <use style="fill:#fefebb;stroke:#000000;stroke-width:0.3;" x="185.424023" xlink:href="#m789cd39690" y="85.579647"/>
     <use style="fill:#fefebb;stroke:#000000;stroke-width:0.3;" x="198.249255" xlink:href="#m789cd39690" y="107.26725"/>
     <use style="fill:#fefebb;stroke:#000000;stroke-width:0.3;" x="145.523302" xlink:href="#m789cd39690" y="84.712143"/>
     <use style="fill:#fefebb;stroke:#000000;stroke-width:0.3;" x="162.623611" xlink:href="#m789cd39690" y="103.218898"/>
     <use style="fill:#fefebb;stroke:#000000;stroke-width:0.3;" x="198.249255" xlink:href="#m789cd39690" y="76.615438"/>
     <use style="fill:#fefebb;stroke:#000000;stroke-width:0.3;" x="231.024847" xlink:href="#m789cd39690" y="78.350446"/>
     <use style="fill:#fefebb;stroke:#000000;stroke-width:0.3;" x="156.210995" xlink:href="#m789cd39690" y="92.808848"/>
     <use style="fill:#fefebb;stroke:#000000;stroke-width:0.3;" x="191.124126" xlink:href="#m789cd39690" y="91.363008"/>
     <use style="fill:#fefebb;stroke:#000000;stroke-width:0.3;" x="171.173765" xlink:href="#m789cd39690" y="97.435537"/>
     <use style="fill:#fefebb;stroke:#000000;stroke-width:0.3;" x="146.235815" xlink:href="#m789cd39690" y="84.422975"/>
     <use style="fill:#fefebb;stroke:#000000;stroke-width:0.3;" x="140.535712" xlink:href="#m789cd39690" y="93.098016"/>
     <use style="fill:#fefebb;stroke:#000000;stroke-width:0.3;" x="172.598791" xlink:href="#m789cd39690" y="100.327217"/>
     <use style="fill:#fefebb;stroke:#000000;stroke-width:0.3;" x="160.486072" xlink:href="#m789cd39690" y="94.254688"/>
     <use style="fill:#fefebb;stroke:#000000;stroke-width:0.3;" x="123.435403" xlink:href="#m789cd39690" y="82.687967"/>
     <use style="fill:#fefebb;stroke:#000000;stroke-width:0.3;" x="128.422993" xlink:href="#m789cd39690" y="75.458766"/>
     <use style="fill:#fefebb;stroke:#000000;stroke-width:0.3;" x="162.623611" xlink:href="#m789cd39690" y="93.098016"/>
     <use style="fill:#fefebb;stroke:#000000;stroke-width:0.3;" x="171.173765" xlink:href="#m789cd39690" y="67.651229"/>
     <use style="fill:#fefebb;stroke:#000000;stroke-width:0.3;" x="112.035197" xlink:href="#m789cd39690" y="94.543857"/>
     <use style="fill:#fefebb;stroke:#000000;stroke-width:0.3;" x="141.248225" xlink:href="#m789cd39690" y="83.844639"/>
     <use style="fill:#fefebb;stroke:#000000;stroke-width:0.3;" x="169.036227" xlink:href="#m789cd39690" y="93.96552"/>
     <use style="fill:#fefebb;stroke:#000000;stroke-width:0.3;" x="166.898688" xlink:href="#m789cd39690" y="78.928782"/>
     <use style="fill:#fefebb;stroke:#000000;stroke-width:0.3;" x="155.498482" xlink:href="#m789cd39690" y="72.567085"/>
     <use style="fill:#fefebb;stroke:#000000;stroke-width:0.3;" x="166.186175" xlink:href="#m789cd39690" y="86.157983"/>
     <use style="fill:#fefebb;stroke:#000000;stroke-width:0.3;" x="194.68669" xlink:href="#m789cd39690" y="68.229565"/>
     <use style="fill:#fefebb;stroke:#000000;stroke-width:0.3;" x="179.011407" xlink:href="#m789cd39690" y="76.037102"/>
     <use style="fill:#fefebb;stroke:#000000;stroke-width:0.3;" x="195.399203" xlink:href="#m789cd39690" y="84.133807"/>
     <use style="fill:#fefebb;stroke:#000000;stroke-width:0.3;" x="184.71151" xlink:href="#m789cd39690" y="62.446204"/>
     <use style="fill:#fefebb;stroke:#000000;stroke-width:0.3;" x="211.074486" xlink:href="#m789cd39690" y="89.917168"/>
     <use style="fill:#fefebb;stroke:#000000;stroke-width:0.3;" x="166.186175" xlink:href="#m789cd39690" y="86.736319"/>
     <use style="fill:#fefebb;stroke:#000000;stroke-width:0.3;" x="174.73633" xlink:href="#m789cd39690" y="90.206336"/>
     <use style="fill:#fefebb;stroke:#000000;stroke-width:0.3;" x="153.360944" xlink:href="#m789cd39690" y="83.844639"/>
     <use style="fill:#fefebb;stroke:#000000;stroke-width:0.3;" x="196.111716" xlink:href="#m789cd39690" y="77.193774"/>
     <use style="fill:#fefebb;stroke:#000000;stroke-width:0.3;" x="198.249255" xlink:href="#m789cd39690" y="64.47038"/>
    </g>
   </g>
   <g id="PathCollection_2">
    <defs>
     <path d="M 0 2.5 
C 0.663008 2.5 1.29895 2.236584 1.767767 1.767767 
C 2.236584 1.29895 2.5 0.663008 2.5 0 
C 2.5 -0.663008 2.236584 -1.29895 1.767767 -1.767767 
C 1.29895 -2.236584 0.663008 -2.5 0 -2.5 
C -0.663008 -2.5 -1.29895 -2.236584 -1.767767 -1.767767 
C -2.236584 -1.29895 -2.5 -0.663008 -2.5 0 
C -2.5 0.663008 -2.236584 1.29895 -1.767767 1.767767 
C -1.29895 2.236584 -0.663008 2.5 0 2.5 
z
" id="m19fb54e2a2" style="stroke:#000000;stroke-width:0.3;"/>
    </defs>
    <g clip-path="url(#pbfce6fa145)">
     <use style="fill:#d9e6f5;stroke:#000000;stroke-width:0.3;" x="89.234785" xlink:href="#m19fb54e2a2" y="154.112473"/>
     <use style="fill:#d9e6f5;stroke:#000000;stroke-width:0.3;" x="112.035197" xlink:href="#m19fb54e2a2" y="139.075735"/>
     <use style="fill:#d9e6f5;stroke:#000000;stroke-width:0.3;" x="79.259605" xlink:href="#m19fb54e2a2" y="129.822358"/>
     <use style="fill:#d9e6f5;stroke:#000000;stroke-width:0.3;" x="104.910068" xlink:href="#m19fb54e2a2" y="118.833972"/>
     <use style="fill:#d9e6f5;stroke:#000000;stroke-width:0.3;" x="74.984527" xlink:href="#m19fb54e2a2" y="80.952959"/>
     <use style="fill:#d9e6f5;stroke:#000000;stroke-width:0.3;" x="65.72186" xlink:href="#m19fb54e2a2" y="119.990644"/>
     <use style="fill:#d9e6f5;stroke:#000000;stroke-width:0.3;" x="111.750192" xlink:href="#m19fb54e2a2" y="93.96552"/>
     <use style="fill:#d9e6f5;stroke:#000000;stroke-width:0.3;" x="86.669739" xlink:href="#m19fb54e2a2" y="78.639614"/>
     <use style="fill:#d9e6f5;stroke:#000000;stroke-width:0.3;" x="87.809759" xlink:href="#m19fb54e2a2" y="112.761443"/>
     <use style="fill:#d9e6f5;stroke:#000000;stroke-width:0.3;" x="122.010377" xlink:href="#m19fb54e2a2" y="133.003206"/>
     <use style="fill:#d9e6f5;stroke:#000000;stroke-width:0.3;" x="117.450295" xlink:href="#m19fb54e2a2" y="133.581542"/>
     <use style="fill:#d9e6f5;stroke:#000000;stroke-width:0.3;" x="139.110686" xlink:href="#m19fb54e2a2" y="141.099911"/>
     <use style="fill:#d9e6f5;stroke:#000000;stroke-width:0.3;" x="73.559502" xlink:href="#m19fb54e2a2" y="87.892992"/>
     <use style="fill:#d9e6f5;stroke:#000000;stroke-width:0.3;" x="82.394661" xlink:href="#m19fb54e2a2" y="117.388132"/>
     <use style="fill:#d9e6f5;stroke:#000000;stroke-width:0.3;" x="155.498482" xlink:href="#m19fb54e2a2" y="87.025487"/>
     <use style="fill:#d9e6f5;stroke:#000000;stroke-width:0.3;" x="141.390727" xlink:href="#m19fb54e2a2" y="108.713091"/>
     <use style="fill:#d9e6f5;stroke:#000000;stroke-width:0.3;" x="76.124548" xlink:href="#m19fb54e2a2" y="125.195669"/>
     <use style="fill:#d9e6f5;stroke:#000000;stroke-width:0.3;" x="70.994455" xlink:href="#m19fb54e2a2" y="111.893939"/>
     <use style="fill:#d9e6f5;stroke:#000000;stroke-width:0.3;" x="86.384733" xlink:href="#m19fb54e2a2" y="132.42487"/>
     <use style="fill:#d9e6f5;stroke:#000000;stroke-width:0.3;" x="122.010377" xlink:href="#m19fb54e2a2" y="117.098964"/>
     <use style="fill:#d9e6f5;stroke:#000000;stroke-width:0.3;" x="81.112138" xlink:href="#m19fb54e2a2" y="96.857201"/>
     <use style="fill:#d9e6f5;stroke:#000000;stroke-width:0.3;" x="54.749162" xlink:href="#m19fb54e2a2" y="105.243074"/>
     <use style="fill:#d9e6f5;stroke:#000000;stroke-width:0.3;" x="116.880284" xlink:href="#m19fb54e2a2" y="97.435537"/>
     <use style="fill:#d9e6f5;stroke:#000000;stroke-width:0.3;" x="104.910068" xlink:href="#m19fb54e2a2" y="124.906501"/>
     <use style="fill:#d9e6f5;stroke:#000000;stroke-width:0.3;" x="88.522272" xlink:href="#m19fb54e2a2" y="124.617333"/>
     <use style="fill:#d9e6f5;stroke:#000000;stroke-width:0.3;" x="89.234785" xlink:href="#m19fb54e2a2" y="106.688914"/>
     <use style="fill:#d9e6f5;stroke:#000000;stroke-width:0.3;" x="79.259605" xlink:href="#m19fb54e2a2" y="114.496451"/>
     <use style="fill:#d9e6f5;stroke:#000000;stroke-width:0.3;" x="85.672221" xlink:href="#m19fb54e2a2" y="121.725652"/>
     <use style="fill:#d9e6f5;stroke:#000000;stroke-width:0.3;" x="95.219893" xlink:href="#m19fb54e2a2" y="124.038997"/>
     <use style="fill:#d9e6f5;stroke:#000000;stroke-width:0.3;" x="112.035197" xlink:href="#m19fb54e2a2" y="121.725652"/>
     <use style="fill:#d9e6f5;stroke:#000000;stroke-width:0.3;" x="104.197555" xlink:href="#m19fb54e2a2" y="124.617333"/>
     <use style="fill:#d9e6f5;stroke:#000000;stroke-width:0.3;" x="83.534682" xlink:href="#m19fb54e2a2" y="127.219845"/>
     <use style="fill:#d9e6f5;stroke:#000000;stroke-width:0.3;" x="79.259605" xlink:href="#m19fb54e2a2" y="134.449046"/>
     <use style="fill:#d9e6f5;stroke:#000000;stroke-width:0.3;" x="85.672221" xlink:href="#m19fb54e2a2" y="128.376517"/>
     <use style="fill:#d9e6f5;stroke:#000000;stroke-width:0.3;" x="56.459193" xlink:href="#m19fb54e2a2" y="105.532242"/>
     <use style="fill:#d9e6f5;stroke:#000000;stroke-width:0.3;" x="64.296834" xlink:href="#m19fb54e2a2" y="105.243074"/>
     <use style="fill:#d9e6f5;stroke:#000000;stroke-width:0.3;" x="148.658359" xlink:href="#m19fb54e2a2" y="104.953906"/>
     <use style="fill:#d9e6f5;stroke:#000000;stroke-width:0.3;" x="104.197555" xlink:href="#m19fb54e2a2" y="141.967415"/>
     <use style="fill:#d9e6f5;stroke:#000000;stroke-width:0.3;" x="76.124548" xlink:href="#m19fb54e2a2" y="98.303041"/>
     <use style="fill:#d9e6f5;stroke:#000000;stroke-width:0.3;" x="109.185145" xlink:href="#m19fb54e2a2" y="62.157036"/>
     <use style="fill:#d9e6f5;stroke:#000000;stroke-width:0.3;" x="72.989491" xlink:href="#m19fb54e2a2" y="84.133807"/>
     <use style="fill:#d9e6f5;stroke:#000000;stroke-width:0.3;" x="116.310274" xlink:href="#m19fb54e2a2" y="107.845586"/>
     <use style="fill:#d9e6f5;stroke:#000000;stroke-width:0.3;" x="95.219893" xlink:href="#m19fb54e2a2" y="131.268198"/>
     <use style="fill:#d9e6f5;stroke:#000000;stroke-width:0.3;" x="77.549574" xlink:href="#m19fb54e2a2" y="109.580595"/>
     <use style="fill:#d9e6f5;stroke:#000000;stroke-width:0.3;" x="74.272015" xlink:href="#m19fb54e2a2" y="123.171493"/>
     <use style="fill:#d9e6f5;stroke:#000000;stroke-width:0.3;" x="110.895176" xlink:href="#m19fb54e2a2" y="115.074787"/>
     <use style="fill:#d9e6f5;stroke:#000000;stroke-width:0.3;" x="60.021757" xlink:href="#m19fb54e2a2" y="117.388132"/>
     <use style="fill:#d9e6f5;stroke:#000000;stroke-width:0.3;" x="87.809759" xlink:href="#m19fb54e2a2" y="111.893939"/>
     <use style="fill:#d9e6f5;stroke:#000000;stroke-width:0.3;" x="84.674702" xlink:href="#m19fb54e2a2" y="119.701476"/>
     <use style="fill:#d9e6f5;stroke:#000000;stroke-width:0.3;" x="59.594249" xlink:href="#m19fb54e2a2" y="111.604771"/>
     <use style="fill:#d9e6f5;stroke:#000000;stroke-width:0.3;" x="112.035197" xlink:href="#m19fb54e2a2" y="86.157983"/>
     <use style="fill:#d9e6f5;stroke:#000000;stroke-width:0.3;" x="95.219893" xlink:href="#m19fb54e2a2" y="95.989697"/>
     <use style="fill:#d9e6f5;stroke:#000000;stroke-width:0.3;" x="61.446783" xlink:href="#m19fb54e2a2" y="104.953906"/>
     <use style="fill:#d9e6f5;stroke:#000000;stroke-width:0.3;" x="101.632509" xlink:href="#m19fb54e2a2" y="111.893939"/>
     <use style="fill:#d9e6f5;stroke:#000000;stroke-width:0.3;" x="76.979563" xlink:href="#m19fb54e2a2" y="112.472275"/>
     <use style="fill:#d9e6f5;stroke:#000000;stroke-width:0.3;" x="69.996937" xlink:href="#m19fb54e2a2" y="104.37557"/>
     <use style="fill:#d9e6f5;stroke:#000000;stroke-width:0.3;" x="73.131994" xlink:href="#m19fb54e2a2" y="107.845586"/>
     <use style="fill:#d9e6f5;stroke:#000000;stroke-width:0.3;" x="85.672221" xlink:href="#m19fb54e2a2" y="124.328165"/>
     <use style="fill:#d9e6f5;stroke:#000000;stroke-width:0.3;" x="64.296834" xlink:href="#m19fb54e2a2" y="110.158931"/>
     <use style="fill:#d9e6f5;stroke:#000000;stroke-width:0.3;" x="68.144404" xlink:href="#m19fb54e2a2" y="134.449046"/>
     <use style="fill:#d9e6f5;stroke:#000000;stroke-width:0.3;" x="95.504898" xlink:href="#m19fb54e2a2" y="123.171493"/>
     <use style="fill:#d9e6f5;stroke:#000000;stroke-width:0.3;" x="104.197555" xlink:href="#m19fb54e2a2" y="89.917168"/>
     <use style="fill:#d9e6f5;stroke:#000000;stroke-width:0.3;" x="81.397143" xlink:href="#m19fb54e2a2" y="23.697687"/>
     <use style="fill:#d9e6f5;stroke:#000000;stroke-width:0.3;" x="67.146886" xlink:href="#m19fb54e2a2" y="109.002259"/>
     <use style="fill:#d9e6f5;stroke:#000000;stroke-width:0.3;" x="69.284424" xlink:href="#m19fb54e2a2" y="93.96552"/>
     <use style="fill:#d9e6f5;stroke:#000000;stroke-width:0.3;" x="69.284424" xlink:href="#m19fb54e2a2" y="82.977135"/>
     <use style="fill:#d9e6f5;stroke:#000000;stroke-width:0.3;" x="68.999419" xlink:href="#m19fb54e2a2" y="93.96552"/>
     <use style="fill:#d9e6f5;stroke:#000000;stroke-width:0.3;" x="65.294352" xlink:href="#m19fb54e2a2" y="79.507118"/>
     <use style="fill:#d9e6f5;stroke:#000000;stroke-width:0.3;" x="81.539646" xlink:href="#m19fb54e2a2" y="105.82141"/>
     <use style="fill:#d9e6f5;stroke:#000000;stroke-width:0.3;" x="63.869327" xlink:href="#m19fb54e2a2" y="99.748881"/>
     <use style="fill:#d9e6f5;stroke:#000000;stroke-width:0.3;" x="97.784939" xlink:href="#m19fb54e2a2" y="119.990644"/>
    </g>
   </g>
   <g id="PathCollection_3">
    <defs>
     <path d="M 0 2.5 
C 0.663008 2.5 1.29895 2.236584 1.767767 1.767767 
C 2.236584 1.29895 2.5 0.663008 2.5 0 
C 2.5 -0.663008 2.236584 -1.29895 1.767767 -1.767767 
C 1.29895 -2.236584 0.663008 -2.5 0 -2.5 
C -0.663008 -2.5 -1.29895 -2.236584 -1.767767 -1.767767 
C -2.236584 -1.29895 -2.5 -0.663008 -2.5 0 
C -2.5 0.663008 -2.236584 1.29895 -1.767767 1.767767 
C -1.29895 2.236584 -0.663008 2.5 0 2.5 
z
" id="m7b2f58d457" style="stroke:#000000;stroke-width:0.3;"/>
    </defs>
    <g clip-path="url(#pbfce6fa145)">
     <use style="fill:#a1dab4;stroke:#000000;stroke-width:0.3;" x="104.910068" xlink:href="#m7b2f58d457" y="134.449046"/>
     <use style="fill:#a1dab4;stroke:#000000;stroke-width:0.3;" x="90.659811" xlink:href="#m7b2f58d457" y="135.31655"/>
     <use style="fill:#a1dab4;stroke:#000000;stroke-width:0.3;" x="94.934888" xlink:href="#m7b2f58d457" y="139.075735"/>
     <use style="fill:#a1dab4;stroke:#000000;stroke-width:0.3;" x="100.634991" xlink:href="#m7b2f58d457" y="135.894886"/>
     <use style="fill:#a1dab4;stroke:#000000;stroke-width:0.3;" x="107.76012" xlink:href="#m7b2f58d457" y="153.823305"/>
     <use style="fill:#a1dab4;stroke:#000000;stroke-width:0.3;" x="114.172735" xlink:href="#m7b2f58d457" y="151.509961"/>
     <use style="fill:#a1dab4;stroke:#000000;stroke-width:0.3;" x="117.7353" xlink:href="#m7b2f58d457" y="157.004153"/>
     <use style="fill:#a1dab4;stroke:#000000;stroke-width:0.3;" x="88.522272" xlink:href="#m7b2f58d457" y="153.244969"/>
     <use style="fill:#a1dab4;stroke:#000000;stroke-width:0.3;" x="97.784939" xlink:href="#m7b2f58d457" y="156.714985"/>
     <use style="fill:#a1dab4;stroke:#000000;stroke-width:0.3;" x="99.209965" xlink:href="#m7b2f58d457" y="153.244969"/>
     <use style="fill:#a1dab4;stroke:#000000;stroke-width:0.3;" x="100.634991" xlink:href="#m7b2f58d457" y="156.136649"/>
     <use style="fill:#a1dab4;stroke:#000000;stroke-width:0.3;" x="126.285454" xlink:href="#m7b2f58d457" y="156.136649"/>
     <use style="fill:#a1dab4;stroke:#000000;stroke-width:0.3;" x="89.234785" xlink:href="#m7b2f58d457" y="155.558313"/>
     <use style="fill:#a1dab4;stroke:#000000;stroke-width:0.3;" x="93.509862" xlink:href="#m7b2f58d457" y="147.461608"/>
     <use style="fill:#a1dab4;stroke:#000000;stroke-width:0.3;" x="136.973147" xlink:href="#m7b2f58d457" y="148.039944"/>
     <use style="fill:#a1dab4;stroke:#000000;stroke-width:0.3;" x="133.410583" xlink:href="#m7b2f58d457" y="154.690809"/>
     <use style="fill:#a1dab4;stroke:#000000;stroke-width:0.3;" x="74.272015" xlink:href="#m7b2f58d457" y="160.763338"/>
     <use style="fill:#a1dab4;stroke:#000000;stroke-width:0.3;" x="104.197555" xlink:href="#m7b2f58d457" y="151.799129"/>
     <use style="fill:#a1dab4;stroke:#000000;stroke-width:0.3;" x="107.76012" xlink:href="#m7b2f58d457" y="148.61828"/>
     <use style="fill:#a1dab4;stroke:#000000;stroke-width:0.3;" x="93.509862" xlink:href="#m7b2f58d457" y="130.400694"/>
     <use style="fill:#a1dab4;stroke:#000000;stroke-width:0.3;" x="86.384733" xlink:href="#m7b2f58d457" y="125.195669"/>
     <use style="fill:#a1dab4;stroke:#000000;stroke-width:0.3;" x="83.534682" xlink:href="#m7b2f58d457" y="131.268198"/>
     <use style="fill:#a1dab4;stroke:#000000;stroke-width:0.3;" x="75.69704" xlink:href="#m7b2f58d457" y="133.581542"/>
     <use style="fill:#a1dab4;stroke:#000000;stroke-width:0.3;" x="111.322684" xlink:href="#m7b2f58d457" y="146.594104"/>
     <use style="fill:#a1dab4;stroke:#000000;stroke-width:0.3;" x="106.335094" xlink:href="#m7b2f58d457" y="153.823305"/>
     <use style="fill:#a1dab4;stroke:#000000;stroke-width:0.3;" x="118.447813" xlink:href="#m7b2f58d457" y="152.377465"/>
     <use style="fill:#a1dab4;stroke:#000000;stroke-width:0.3;" x="83.534682" xlink:href="#m7b2f58d457" y="146.594104"/>
     <use style="fill:#a1dab4;stroke:#000000;stroke-width:0.3;" x="140.535712" xlink:href="#m7b2f58d457" y="153.823305"/>
     <use style="fill:#a1dab4;stroke:#000000;stroke-width:0.3;" x="109.185145" xlink:href="#m7b2f58d457" y="132.714038"/>
     <use style="fill:#a1dab4;stroke:#000000;stroke-width:0.3;" x="103.485042" xlink:href="#m7b2f58d457" y="138.786567"/>
     <use style="fill:#a1dab4;stroke:#000000;stroke-width:0.3;" x="89.234785" xlink:href="#m7b2f58d457" y="143.991592"/>
     <use style="fill:#a1dab4;stroke:#000000;stroke-width:0.3;" x="112.035197" xlink:href="#m7b2f58d457" y="154.401641"/>
     <use style="fill:#a1dab4;stroke:#000000;stroke-width:0.3;" x="96.359914" xlink:href="#m7b2f58d457" y="153.244969"/>
     <use style="fill:#a1dab4;stroke:#000000;stroke-width:0.3;" x="111.322684" xlink:href="#m7b2f58d457" y="150.353288"/>
     <use style="fill:#a1dab4;stroke:#000000;stroke-width:0.3;" x="102.772529" xlink:href="#m7b2f58d457" y="150.931624"/>
     <use style="fill:#a1dab4;stroke:#000000;stroke-width:0.3;" x="89.234785" xlink:href="#m7b2f58d457" y="157.004153"/>
     <use style="fill:#a1dab4;stroke:#000000;stroke-width:0.3;" x="114.172735" xlink:href="#m7b2f58d457" y="143.991592"/>
     <use style="fill:#a1dab4;stroke:#000000;stroke-width:0.3;" x="112.74771" xlink:href="#m7b2f58d457" y="151.509961"/>
     <use style="fill:#a1dab4;stroke:#000000;stroke-width:0.3;" x="122.010377" xlink:href="#m7b2f58d457" y="146.304936"/>
     <use style="fill:#a1dab4;stroke:#000000;stroke-width:0.3;" x="104.910068" xlink:href="#m7b2f58d457" y="142.834919"/>
     <use style="fill:#a1dab4;stroke:#000000;stroke-width:0.3;" x="87.809759" xlink:href="#m7b2f58d457" y="156.425817"/>
     <use style="fill:#a1dab4;stroke:#000000;stroke-width:0.3;" x="82.109656" xlink:href="#m7b2f58d457" y="155.847481"/>
     <use style="fill:#a1dab4;stroke:#000000;stroke-width:0.3;" x="109.185145" xlink:href="#m7b2f58d457" y="150.353288"/>
     <use style="fill:#a1dab4;stroke:#000000;stroke-width:0.3;" x="120.585351" xlink:href="#m7b2f58d457" y="152.955801"/>
     <use style="fill:#a1dab4;stroke:#000000;stroke-width:0.3;" x="122.010377" xlink:href="#m7b2f58d457" y="148.907448"/>
     <use style="fill:#a1dab4;stroke:#000000;stroke-width:0.3;" x="134.123096" xlink:href="#m7b2f58d457" y="150.642456"/>
     <use style="fill:#a1dab4;stroke:#000000;stroke-width:0.3;" x="134.835609" xlink:href="#m7b2f58d457" y="150.931624"/>
     <use style="fill:#a1dab4;stroke:#000000;stroke-width:0.3;" x="94.934888" xlink:href="#m7b2f58d457" y="148.61828"/>
    </g>
   </g>
   <g id="patch_3">
    <path clip-path="url(#pbfce6fa145)" d="M 54.749162 160.763338 
L 122.72289 160.763338 
L 122.72289 23.697687 
L 54.749162 23.697687 
z
" style="fill:#d9e6f5;opacity:0.4;stroke:#444443;stroke-linejoin:miter;stroke-width:0.3;"/>
   </g>
   <g id="patch_4">
    <path clip-path="url(#pbfce6fa145)" d="M 122.72289 160.763338 
L 254.537772 160.763338 
L 254.537772 23.697687 
L 122.72289 23.697687 
z
" style="fill:#fefebb;opacity:0.4;stroke:#444443;stroke-linejoin:miter;stroke-width:0.3;"/>
   </g>
   <g id="matplotlib.axis_1">
    <g id="xtick_1">
     <g id="line2d_1">
      <defs>
       <path d="M 0 0 
L 0 3.5 
" id="m88784f37b7" style="stroke:#000000;stroke-width:0.8;"/>
      </defs>
      <g>
       <use style="stroke:#000000;stroke-width:0.8;" x="50.75909" xlink:href="#m88784f37b7" y="170.2"/>
      </g>
     </g>
     <g id="text_1">
      <!-- 250 -->
      <defs>
       <path d="M 19.1875 8.296875 
L 53.609375 8.296875 
L 53.609375 0 
L 7.328125 0 
L 7.328125 8.296875 
Q 12.9375 14.109375 22.625 23.890625 
Q 32.328125 33.6875 34.8125 36.53125 
Q 39.546875 41.84375 41.421875 45.53125 
Q 43.3125 49.21875 43.3125 52.78125 
Q 43.3125 58.59375 39.234375 62.25 
Q 35.15625 65.921875 28.609375 65.921875 
Q 23.96875 65.921875 18.8125 64.3125 
Q 13.671875 62.703125 7.8125 59.421875 
L 7.8125 69.390625 
Q 13.765625 71.78125 18.9375 73 
Q 24.125 74.21875 28.421875 74.21875 
Q 39.75 74.21875 46.484375 68.546875 
Q 53.21875 62.890625 53.21875 53.421875 
Q 53.21875 48.921875 51.53125 44.890625 
Q 49.859375 40.875 45.40625 35.40625 
Q 44.1875 33.984375 37.640625 27.21875 
Q 31.109375 20.453125 19.1875 8.296875 
z
" id="DejaVuSans-50"/>
       <path d="M 10.796875 72.90625 
L 49.515625 72.90625 
L 49.515625 64.59375 
L 19.828125 64.59375 
L 19.828125 46.734375 
Q 21.96875 47.46875 24.109375 47.828125 
Q 26.265625 48.1875 28.421875 48.1875 
Q 40.625 48.1875 47.75 41.5 
Q 54.890625 34.8125 54.890625 23.390625 
Q 54.890625 11.625 47.5625 5.09375 
Q 40.234375 -1.421875 26.90625 -1.421875 
Q 22.3125 -1.421875 17.546875 -0.640625 
Q 12.796875 0.140625 7.71875 1.703125 
L 7.71875 11.625 
Q 12.109375 9.234375 16.796875 8.0625 
Q 21.484375 6.890625 26.703125 6.890625 
Q 35.15625 6.890625 40.078125 11.328125 
Q 45.015625 15.765625 45.015625 23.390625 
Q 45.015625 31 40.078125 35.4375 
Q 35.15625 39.890625 26.703125 39.890625 
Q 22.75 39.890625 18.8125 39.015625 
Q 14.890625 38.140625 10.796875 36.28125 
z
" id="DejaVuSans-53"/>
       <path d="M 31.78125 66.40625 
Q 24.171875 66.40625 20.328125 58.90625 
Q 16.5 51.421875 16.5 36.375 
Q 16.5 21.390625 20.328125 13.890625 
Q 24.171875 6.390625 31.78125 6.390625 
Q 39.453125 6.390625 43.28125 13.890625 
Q 47.125 21.390625 47.125 36.375 
Q 47.125 51.421875 43.28125 58.90625 
Q 39.453125 66.40625 31.78125 66.40625 
z
M 31.78125 74.21875 
Q 44.046875 74.21875 50.515625 64.515625 
Q 56.984375 54.828125 56.984375 36.375 
Q 56.984375 17.96875 50.515625 8.265625 
Q 44.046875 -1.421875 31.78125 -1.421875 
Q 19.53125 -1.421875 13.0625 8.265625 
Q 6.59375 17.96875 6.59375 36.375 
Q 6.59375 54.828125 13.0625 64.515625 
Q 19.53125 74.21875 31.78125 74.21875 
z
" id="DejaVuSans-48"/>
      </defs>
      <g transform="translate(41.21534 184.798438)scale(0.1 -0.1)">
       <use xlink:href="#DejaVuSans-50"/>
       <use x="63.623047" xlink:href="#DejaVuSans-53"/>
       <use x="127.246094" xlink:href="#DejaVuSans-48"/>
      </g>
     </g>
    </g>
    <g id="xtick_2">
     <g id="line2d_2">
      <g>
       <use style="stroke:#000000;stroke-width:0.8;" x="86.384733" xlink:href="#m88784f37b7" y="170.2"/>
      </g>
     </g>
     <g id="text_2">
      <!-- 500 -->
      <g transform="translate(76.840983 184.798438)scale(0.1 -0.1)">
       <use xlink:href="#DejaVuSans-53"/>
       <use x="63.623047" xlink:href="#DejaVuSans-48"/>
       <use x="127.246094" xlink:href="#DejaVuSans-48"/>
      </g>
     </g>
    </g>
    <g id="xtick_3">
     <g id="line2d_3">
      <g>
       <use style="stroke:#000000;stroke-width:0.8;" x="122.010377" xlink:href="#m88784f37b7" y="170.2"/>
      </g>
     </g>
     <g id="text_3">
      <!-- 750 -->
      <defs>
       <path d="M 8.203125 72.90625 
L 55.078125 72.90625 
L 55.078125 68.703125 
L 28.609375 0 
L 18.3125 0 
L 43.21875 64.59375 
L 8.203125 64.59375 
z
" id="DejaVuSans-55"/>
      </defs>
      <g transform="translate(112.466627 184.798438)scale(0.1 -0.1)">
       <use xlink:href="#DejaVuSans-55"/>
       <use x="63.623047" xlink:href="#DejaVuSans-53"/>
       <use x="127.246094" xlink:href="#DejaVuSans-48"/>
      </g>
     </g>
    </g>
    <g id="xtick_4">
     <g id="line2d_4">
      <g>
       <use style="stroke:#000000;stroke-width:0.8;" x="157.636021" xlink:href="#m88784f37b7" y="170.2"/>
      </g>
     </g>
     <g id="text_4">
      <!-- 1000 -->
      <defs>
       <path d="M 12.40625 8.296875 
L 28.515625 8.296875 
L 28.515625 63.921875 
L 10.984375 60.40625 
L 10.984375 69.390625 
L 28.421875 72.90625 
L 38.28125 72.90625 
L 38.28125 8.296875 
L 54.390625 8.296875 
L 54.390625 0 
L 12.40625 0 
z
" id="DejaVuSans-49"/>
      </defs>
      <g transform="translate(144.911021 184.798438)scale(0.1 -0.1)">
       <use xlink:href="#DejaVuSans-49"/>
       <use x="63.623047" xlink:href="#DejaVuSans-48"/>
       <use x="127.246094" xlink:href="#DejaVuSans-48"/>
       <use x="190.869141" xlink:href="#DejaVuSans-48"/>
      </g>
     </g>
    </g>
    <g id="xtick_5">
     <g id="line2d_5">
      <g>
       <use style="stroke:#000000;stroke-width:0.8;" x="193.261664" xlink:href="#m88784f37b7" y="170.2"/>
      </g>
     </g>
     <g id="text_5">
      <!-- 1250 -->
      <g transform="translate(180.536664 184.798438)scale(0.1 -0.1)">
       <use xlink:href="#DejaVuSans-49"/>
       <use x="63.623047" xlink:href="#DejaVuSans-50"/>
       <use x="127.246094" xlink:href="#DejaVuSans-53"/>
       <use x="190.869141" xlink:href="#DejaVuSans-48"/>
      </g>
     </g>
    </g>
    <g id="xtick_6">
     <g id="line2d_6">
      <g>
       <use style="stroke:#000000;stroke-width:0.8;" x="228.887308" xlink:href="#m88784f37b7" y="170.2"/>
      </g>
     </g>
     <g id="text_6">
      <!-- 1500 -->
      <g transform="translate(216.162308 184.798438)scale(0.1 -0.1)">
       <use xlink:href="#DejaVuSans-49"/>
       <use x="63.623047" xlink:href="#DejaVuSans-53"/>
       <use x="127.246094" xlink:href="#DejaVuSans-48"/>
       <use x="190.869141" xlink:href="#DejaVuSans-48"/>
      </g>
     </g>
    </g>
    <g id="xtick_7">
     <g id="line2d_7">
      <g>
       <use style="stroke:#000000;stroke-width:0.8;" x="264.512952" xlink:href="#m88784f37b7" y="170.2"/>
      </g>
     </g>
     <g id="text_7">
      <!-- 1750 -->
      <g transform="translate(251.787952 184.798438)scale(0.1 -0.1)">
       <use xlink:href="#DejaVuSans-49"/>
       <use x="63.623047" xlink:href="#DejaVuSans-55"/>
       <use x="127.246094" xlink:href="#DejaVuSans-53"/>
       <use x="190.869141" xlink:href="#DejaVuSans-48"/>
      </g>
     </g>
    </g>
    <g id="text_8">
     <!-- proline -->
     <defs>
      <path d="M 6.59375 -19.875 
L 6.59375 51.859375 
L 14.59375 51.859375 
L 14.59375 45.125 
Q 17.4375 49.078125 21 51.046875 
Q 24.5625 53.03125 29.640625 53.03125 
Q 36.28125 53.03125 41.359375 49.609375 
Q 46.4375 46.1875 49.015625 39.953125 
Q 51.609375 33.734375 51.609375 26.3125 
Q 51.609375 18.359375 48.75 11.984375 
Q 45.90625 5.609375 40.453125 2.21875 
Q 35.015625 -1.171875 29 -1.171875 
Q 24.609375 -1.171875 21.109375 0.6875 
Q 17.625 2.546875 15.375 5.375 
L 15.375 -19.875 
z
M 14.546875 25.640625 
Q 14.546875 15.625 18.59375 10.84375 
Q 22.65625 6.0625 28.421875 6.0625 
Q 34.28125 6.0625 38.453125 11.015625 
Q 42.625 15.96875 42.625 26.375 
Q 42.625 36.28125 38.546875 41.203125 
Q 34.46875 46.140625 28.8125 46.140625 
Q 23.1875 46.140625 18.859375 40.890625 
Q 14.546875 35.640625 14.546875 25.640625 
z
" id="ArialMT-112"/>
      <path d="M 6.5 0 
L 6.5 51.859375 
L 14.40625 51.859375 
L 14.40625 44 
Q 17.4375 49.515625 20 51.265625 
Q 22.5625 53.03125 25.640625 53.03125 
Q 30.078125 53.03125 34.671875 50.203125 
L 31.640625 42.046875 
Q 28.421875 43.953125 25.203125 43.953125 
Q 22.3125 43.953125 20.015625 42.21875 
Q 17.71875 40.484375 16.75 37.40625 
Q 15.28125 32.71875 15.28125 27.15625 
L 15.28125 0 
z
" id="ArialMT-114"/>
      <path d="M 3.328125 25.921875 
Q 3.328125 40.328125 11.328125 47.265625 
Q 18.015625 53.03125 27.640625 53.03125 
Q 38.328125 53.03125 45.109375 46.015625 
Q 51.90625 39.015625 51.90625 26.65625 
Q 51.90625 16.65625 48.90625 10.90625 
Q 45.90625 5.171875 40.15625 2 
Q 34.421875 -1.171875 27.640625 -1.171875 
Q 16.75 -1.171875 10.03125 5.8125 
Q 3.328125 12.796875 3.328125 25.921875 
z
M 12.359375 25.921875 
Q 12.359375 15.96875 16.703125 11.015625 
Q 21.046875 6.0625 27.640625 6.0625 
Q 34.1875 6.0625 38.53125 11.03125 
Q 42.875 16.015625 42.875 26.21875 
Q 42.875 35.84375 38.5 40.796875 
Q 34.125 45.75 27.640625 45.75 
Q 21.046875 45.75 16.703125 40.8125 
Q 12.359375 35.890625 12.359375 25.921875 
z
" id="ArialMT-111"/>
      <path d="M 6.390625 0 
L 6.390625 71.578125 
L 15.1875 71.578125 
L 15.1875 0 
z
" id="ArialMT-108"/>
      <path d="M 6.640625 61.46875 
L 6.640625 71.578125 
L 15.4375 71.578125 
L 15.4375 61.46875 
z
M 6.640625 0 
L 6.640625 51.859375 
L 15.4375 51.859375 
L 15.4375 0 
z
" id="ArialMT-105"/>
      <path d="M 6.59375 0 
L 6.59375 51.859375 
L 14.5 51.859375 
L 14.5 44.484375 
Q 20.21875 53.03125 31 53.03125 
Q 35.6875 53.03125 39.625 51.34375 
Q 43.5625 49.65625 45.515625 46.921875 
Q 47.46875 44.1875 48.25 40.4375 
Q 48.734375 37.984375 48.734375 31.890625 
L 48.734375 0 
L 39.9375 0 
L 39.9375 31.546875 
Q 39.9375 36.921875 38.90625 39.578125 
Q 37.890625 42.234375 35.28125 43.8125 
Q 32.671875 45.40625 29.15625 45.40625 
Q 23.53125 45.40625 19.453125 41.84375 
Q 15.375 38.28125 15.375 28.328125 
L 15.375 0 
z
" id="ArialMT-110"/>
      <path d="M 42.09375 16.703125 
L 51.171875 15.578125 
Q 49.03125 7.625 43.21875 3.21875 
Q 37.40625 -1.171875 28.375 -1.171875 
Q 17 -1.171875 10.328125 5.828125 
Q 3.65625 12.84375 3.65625 25.484375 
Q 3.65625 38.578125 10.390625 45.796875 
Q 17.140625 53.03125 27.875 53.03125 
Q 38.28125 53.03125 44.875 45.953125 
Q 51.46875 38.875 51.46875 26.03125 
Q 51.46875 25.25 51.421875 23.6875 
L 12.75 23.6875 
Q 13.234375 15.140625 17.578125 10.59375 
Q 21.921875 6.0625 28.421875 6.0625 
Q 33.25 6.0625 36.671875 8.59375 
Q 40.09375 11.140625 42.09375 16.703125 
z
M 13.234375 30.90625 
L 42.1875 30.90625 
Q 41.609375 37.453125 38.875 40.71875 
Q 34.671875 45.796875 27.984375 45.796875 
Q 21.921875 45.796875 17.796875 41.75 
Q 13.671875 37.703125 13.234375 30.90625 
z
" id="ArialMT-101"/>
     </defs>
     <g style="fill:#444443;" transform="translate(132.401447 200.899063)scale(0.14 -0.14)">
      <use xlink:href="#ArialMT-112"/>
      <use x="55.615234" xlink:href="#ArialMT-114"/>
      <use x="88.916016" xlink:href="#ArialMT-111"/>
      <use x="144.53125" xlink:href="#ArialMT-108"/>
      <use x="166.748047" xlink:href="#ArialMT-105"/>
      <use x="188.964844" xlink:href="#ArialMT-110"/>
      <use x="244.580078" xlink:href="#ArialMT-101"/>
     </g>
    </g>
   </g>
   <g id="matplotlib.axis_2">
    <g id="ytick_1">
     <g id="line2d_8">
      <defs>
       <path d="M 0 0 
L -3.5 0 
" id="m7403bbaa2d" style="stroke:#000000;stroke-width:0.8;"/>
      </defs>
      <g>
       <use style="stroke:#000000;stroke-width:0.8;" x="42.175" xlink:href="#m7403bbaa2d" y="170.595051"/>
      </g>
     </g>
     <g id="text_9">
      <!-- 0 -->
      <g transform="translate(28.8125 174.39427)scale(0.1 -0.1)">
       <use xlink:href="#DejaVuSans-48"/>
      </g>
     </g>
    </g>
    <g id="ytick_2">
     <g id="line2d_9">
      <g>
       <use style="stroke:#000000;stroke-width:0.8;" x="42.175" xlink:href="#m7403bbaa2d" y="141.678247"/>
      </g>
     </g>
     <g id="text_10">
      <!-- 1 -->
      <g transform="translate(28.8125 145.477466)scale(0.1 -0.1)">
       <use xlink:href="#DejaVuSans-49"/>
      </g>
     </g>
    </g>
    <g id="ytick_3">
     <g id="line2d_10">
      <g>
       <use style="stroke:#000000;stroke-width:0.8;" x="42.175" xlink:href="#m7403bbaa2d" y="112.761443"/>
      </g>
     </g>
     <g id="text_11">
      <!-- 2 -->
      <g transform="translate(28.8125 116.560662)scale(0.1 -0.1)">
       <use xlink:href="#DejaVuSans-50"/>
      </g>
     </g>
    </g>
    <g id="ytick_4">
     <g id="line2d_11">
      <g>
       <use style="stroke:#000000;stroke-width:0.8;" x="42.175" xlink:href="#m7403bbaa2d" y="83.844639"/>
      </g>
     </g>
     <g id="text_12">
      <!-- 3 -->
      <defs>
       <path d="M 40.578125 39.3125 
Q 47.65625 37.796875 51.625 33 
Q 55.609375 28.21875 55.609375 21.1875 
Q 55.609375 10.40625 48.1875 4.484375 
Q 40.765625 -1.421875 27.09375 -1.421875 
Q 22.515625 -1.421875 17.65625 -0.515625 
Q 12.796875 0.390625 7.625 2.203125 
L 7.625 11.71875 
Q 11.71875 9.328125 16.59375 8.109375 
Q 21.484375 6.890625 26.8125 6.890625 
Q 36.078125 6.890625 40.9375 10.546875 
Q 45.796875 14.203125 45.796875 21.1875 
Q 45.796875 27.640625 41.28125 31.265625 
Q 36.765625 34.90625 28.71875 34.90625 
L 20.21875 34.90625 
L 20.21875 43.015625 
L 29.109375 43.015625 
Q 36.375 43.015625 40.234375 45.921875 
Q 44.09375 48.828125 44.09375 54.296875 
Q 44.09375 59.90625 40.109375 62.90625 
Q 36.140625 65.921875 28.71875 65.921875 
Q 24.65625 65.921875 20.015625 65.03125 
Q 15.375 64.15625 9.8125 62.3125 
L 9.8125 71.09375 
Q 15.4375 72.65625 20.34375 73.4375 
Q 25.25 74.21875 29.59375 74.21875 
Q 40.828125 74.21875 47.359375 69.109375 
Q 53.90625 64.015625 53.90625 55.328125 
Q 53.90625 49.265625 50.4375 45.09375 
Q 46.96875 40.921875 40.578125 39.3125 
z
" id="DejaVuSans-51"/>
      </defs>
      <g transform="translate(28.8125 87.643858)scale(0.1 -0.1)">
       <use xlink:href="#DejaVuSans-51"/>
      </g>
     </g>
    </g>
    <g id="ytick_5">
     <g id="line2d_12">
      <g>
       <use style="stroke:#000000;stroke-width:0.8;" x="42.175" xlink:href="#m7403bbaa2d" y="54.927835"/>
      </g>
     </g>
     <g id="text_13">
      <!-- 4 -->
      <defs>
       <path d="M 37.796875 64.3125 
L 12.890625 25.390625 
L 37.796875 25.390625 
z
M 35.203125 72.90625 
L 47.609375 72.90625 
L 47.609375 25.390625 
L 58.015625 25.390625 
L 58.015625 17.1875 
L 47.609375 17.1875 
L 47.609375 0 
L 37.796875 0 
L 37.796875 17.1875 
L 4.890625 17.1875 
L 4.890625 26.703125 
z
" id="DejaVuSans-52"/>
      </defs>
      <g transform="translate(28.8125 58.727054)scale(0.1 -0.1)">
       <use xlink:href="#DejaVuSans-52"/>
      </g>
     </g>
    </g>
    <g id="ytick_6">
     <g id="line2d_13">
      <g>
       <use style="stroke:#000000;stroke-width:0.8;" x="42.175" xlink:href="#m7403bbaa2d" y="26.011031"/>
      </g>
     </g>
     <g id="text_14">
      <!-- 5 -->
      <g transform="translate(28.8125 29.81025)scale(0.1 -0.1)">
       <use xlink:href="#DejaVuSans-53"/>
      </g>
     </g>
    </g>
    <g id="text_15">
     <!-- flavanoid -->
     <defs>
      <path d="M 8.6875 0 
L 8.6875 45.015625 
L 0.921875 45.015625 
L 0.921875 51.859375 
L 8.6875 51.859375 
L 8.6875 57.375 
Q 8.6875 62.59375 9.625 65.140625 
Q 10.890625 68.5625 14.078125 70.671875 
Q 17.28125 72.796875 23.046875 72.796875 
Q 26.765625 72.796875 31.25 71.921875 
L 29.9375 64.265625 
Q 27.203125 64.75 24.75 64.75 
Q 20.75 64.75 19.09375 63.03125 
Q 17.4375 61.328125 17.4375 56.640625 
L 17.4375 51.859375 
L 27.546875 51.859375 
L 27.546875 45.015625 
L 17.4375 45.015625 
L 17.4375 0 
z
" id="ArialMT-102"/>
      <path d="M 40.4375 6.390625 
Q 35.546875 2.25 31.03125 0.53125 
Q 26.515625 -1.171875 21.34375 -1.171875 
Q 12.796875 -1.171875 8.203125 3 
Q 3.609375 7.171875 3.609375 13.671875 
Q 3.609375 17.484375 5.34375 20.625 
Q 7.078125 23.78125 9.890625 25.6875 
Q 12.703125 27.59375 16.21875 28.5625 
Q 18.796875 29.25 24.03125 29.890625 
Q 34.671875 31.15625 39.703125 32.90625 
Q 39.75 34.71875 39.75 35.203125 
Q 39.75 40.578125 37.25 42.78125 
Q 33.890625 45.75 27.25 45.75 
Q 21.046875 45.75 18.09375 43.578125 
Q 15.140625 41.40625 13.71875 35.890625 
L 5.125 37.0625 
Q 6.296875 42.578125 8.984375 45.96875 
Q 11.671875 49.359375 16.75 51.1875 
Q 21.828125 53.03125 28.515625 53.03125 
Q 35.15625 53.03125 39.296875 51.46875 
Q 43.453125 49.90625 45.40625 47.53125 
Q 47.359375 45.171875 48.140625 41.546875 
Q 48.578125 39.3125 48.578125 33.453125 
L 48.578125 21.734375 
Q 48.578125 9.46875 49.140625 6.21875 
Q 49.703125 2.984375 51.375 0 
L 42.1875 0 
Q 40.828125 2.734375 40.4375 6.390625 
z
M 39.703125 26.03125 
Q 34.90625 24.078125 25.34375 22.703125 
Q 19.921875 21.921875 17.671875 20.9375 
Q 15.4375 19.96875 14.203125 18.09375 
Q 12.984375 16.21875 12.984375 13.921875 
Q 12.984375 10.40625 15.640625 8.0625 
Q 18.3125 5.71875 23.4375 5.71875 
Q 28.515625 5.71875 32.46875 7.9375 
Q 36.421875 10.15625 38.28125 14.015625 
Q 39.703125 17 39.703125 22.796875 
z
" id="ArialMT-97"/>
      <path d="M 21 0 
L 1.265625 51.859375 
L 10.546875 51.859375 
L 21.6875 20.796875 
Q 23.484375 15.765625 25 10.359375 
Q 26.171875 14.453125 28.265625 20.21875 
L 39.796875 51.859375 
L 48.828125 51.859375 
L 29.203125 0 
z
" id="ArialMT-118"/>
      <path d="M 40.234375 0 
L 40.234375 6.546875 
Q 35.296875 -1.171875 25.734375 -1.171875 
Q 19.53125 -1.171875 14.328125 2.25 
Q 9.125 5.671875 6.265625 11.796875 
Q 3.421875 17.921875 3.421875 25.875 
Q 3.421875 33.640625 6 39.96875 
Q 8.59375 46.296875 13.765625 49.65625 
Q 18.953125 53.03125 25.34375 53.03125 
Q 30.03125 53.03125 33.6875 51.046875 
Q 37.359375 49.078125 39.65625 45.90625 
L 39.65625 71.578125 
L 48.390625 71.578125 
L 48.390625 0 
z
M 12.453125 25.875 
Q 12.453125 15.921875 16.640625 10.984375 
Q 20.84375 6.0625 26.5625 6.0625 
Q 32.328125 6.0625 36.34375 10.765625 
Q 40.375 15.484375 40.375 25.140625 
Q 40.375 35.796875 36.265625 40.765625 
Q 32.171875 45.75 26.171875 45.75 
Q 20.3125 45.75 16.375 40.96875 
Q 12.453125 36.1875 12.453125 25.875 
z
" id="ArialMT-100"/>
     </defs>
     <g style="fill:#444443;" transform="translate(22.03 120.268594)rotate(-90)scale(0.14 -0.14)">
      <use xlink:href="#ArialMT-102"/>
      <use x="27.783203" xlink:href="#ArialMT-108"/>
      <use x="50" xlink:href="#ArialMT-97"/>
      <use x="105.615234" xlink:href="#ArialMT-118"/>
      <use x="155.615234" xlink:href="#ArialMT-97"/>
      <use x="211.230469" xlink:href="#ArialMT-110"/>
      <use x="266.845703" xlink:href="#ArialMT-111"/>
      <use x="322.460938" xlink:href="#ArialMT-105"/>
      <use x="344.677734" xlink:href="#ArialMT-100"/>
     </g>
    </g>
   </g>
   <g id="patch_5">
    <path d="M 42.175 170.2 
L 42.175 14.3 
" style="fill:none;stroke:#000000;stroke-linecap:square;stroke-linejoin:miter;stroke-width:0.8;"/>
   </g>
   <g id="patch_6">
    <path d="M 42.175 170.2 
L 264.651957 170.2 
" style="fill:none;stroke:#000000;stroke-linecap:square;stroke-linejoin:miter;stroke-width:0.3;"/>
   </g>
  </g>
 </g>
 <defs>
  <clipPath id="pbfce6fa145">
   <rect height="155.9" width="222.476957" x="42.175" y="14.3"/>
  </clipPath>
 </defs>
</svg>
